<svg width="293" height="79" viewBox="0 0 293 79" fill="none" xmlns="http://www.w3.org/2000/svg">
<path d="M46.5619 21H41.4919L34.4419 1.2H39.4969L44.0269 15.285L48.5569 1.2H53.6119L46.5619 21ZM63.4625 21V19.005C63.3725 19.205 63.1425 19.495 62.7725 19.875C62.4125 20.255 61.9325 20.6 61.3325 20.91C60.7325 21.21 60.0325 21.36 59.2325 21.36C58.0325 21.36 56.9825 21.07 56.0825 20.49C55.1825 19.9 54.4825 19.115 53.9825 18.135C53.4825 17.145 53.2325 16.05 53.2325 14.85C53.2325 13.65 53.4825 12.56 53.9825 11.58C54.4825 10.59 55.1825 9.8 56.0825 9.21C56.9825 8.62 58.0325 8.325 59.2325 8.325C60.0025 8.325 60.6775 8.45 61.2575 8.7C61.8375 8.94 62.3075 9.23 62.6675 9.57C63.0275 9.9 63.2775 10.205 63.4175 10.485V8.685H67.9475V21H63.4625ZM57.7025 14.85C57.7025 15.41 57.8325 15.915 58.0925 16.365C58.3525 16.805 58.6975 17.15 59.1275 17.4C59.5675 17.65 60.0525 17.775 60.5825 17.775C61.1325 17.775 61.6175 17.65 62.0375 17.4C62.4575 17.15 62.7875 16.805 63.0275 16.365C63.2775 15.915 63.4025 15.41 63.4025 14.85C63.4025 14.29 63.2775 13.79 63.0275 13.35C62.7875 12.9 62.4575 12.55 62.0375 12.3C61.6175 12.04 61.1325 11.91 60.5825 11.91C60.0525 11.91 59.5675 12.04 59.1275 12.3C58.6975 12.55 58.3525 12.9 58.0925 13.35C57.8325 13.79 57.7025 14.29 57.7025 14.85ZM79.3161 8.325C80.1761 8.325 81.0161 8.5 81.8361 8.85C82.6561 9.2 83.3311 9.755 83.8611 10.515C84.3911 11.265 84.6561 12.255 84.6561 13.485V21H80.0811V14.235C80.0811 13.355 79.8711 12.695 79.4511 12.255C79.0311 11.805 78.4811 11.58 77.8011 11.58C77.3511 11.58 76.9261 11.7 76.5261 11.94C76.1361 12.17 75.8161 12.5 75.5661 12.93C75.3261 13.35 75.2061 13.835 75.2061 14.385V21H70.6461V8.685H75.2061V10.5C75.3261 10.17 75.5761 9.84 75.9561 9.51C76.3461 9.17 76.8311 8.89 77.4111 8.67C78.0011 8.44 78.6361 8.325 79.3161 8.325ZM93.7709 27.585C92.9109 27.585 92.0559 27.51 91.2059 27.36C90.3659 27.21 89.5809 26.955 88.8509 26.595C88.1209 26.235 87.5059 25.74 87.0059 25.11L89.6759 22.335C89.9059 22.605 90.1859 22.87 90.5159 23.13C90.8559 23.39 91.2709 23.605 91.7609 23.775C92.2609 23.945 92.8659 24.03 93.5759 24.03C94.2359 24.03 94.8109 23.915 95.3009 23.685C95.7909 23.455 96.1709 23.12 96.4409 22.68C96.7209 22.24 96.8609 21.705 96.8609 21.075V20.775H101.346V21.345C101.346 22.705 101.006 23.85 100.326 24.78C99.6559 25.71 98.7509 26.41 97.6109 26.88C96.4709 27.35 95.1909 27.585 93.7709 27.585ZM96.8609 21V19.005C96.7709 19.205 96.5409 19.495 96.1709 19.875C95.8109 20.255 95.3309 20.6 94.7309 20.91C94.1309 21.21 93.4309 21.36 92.6309 21.36C91.4309 21.36 90.3809 21.07 89.4809 20.49C88.5809 19.9 87.8809 19.115 87.3809 18.135C86.8809 17.145 86.6309 16.05 86.6309 14.85C86.6309 13.65 86.8809 12.56 87.3809 11.58C87.8809 10.59 88.5809 9.8 89.4809 9.21C90.3809 8.62 91.4309 8.325 92.6309 8.325C93.4009 8.325 94.0759 8.45 94.6559 8.7C95.2359 8.94 95.7059 9.23 96.0659 9.57C96.4259 9.9 96.6759 10.205 96.8159 10.485V8.685H101.346V21H96.8609ZM91.1009 14.85C91.1009 15.41 91.2309 15.915 91.4909 16.365C91.7509 16.805 92.0959 17.15 92.5259 17.4C92.9659 17.65 93.4509 17.775 93.9809 17.775C94.5309 17.775 95.0159 17.65 95.4359 17.4C95.8559 17.15 96.1859 16.805 96.4259 16.365C96.6759 15.915 96.8009 15.41 96.8009 14.85C96.8009 14.29 96.6759 13.79 96.4259 13.35C96.1859 12.9 95.8559 12.55 95.4359 12.3C95.0159 12.04 94.5309 11.91 93.9809 11.91C93.4509 11.91 92.9659 12.04 92.5259 12.3C92.0959 12.55 91.7509 12.9 91.4909 13.35C91.2309 13.79 91.1009 14.29 91.1009 14.85ZM108.589 14.385C108.589 15.365 108.774 16.15 109.144 16.74C109.514 17.32 110.134 17.61 111.004 17.61C111.894 17.61 112.519 17.32 112.879 16.74C113.249 16.15 113.434 15.365 113.434 14.385V8.685H117.934V14.865C117.934 16.185 117.659 17.335 117.109 18.315C116.569 19.285 115.784 20.035 114.754 20.565C113.724 21.095 112.474 21.36 111.004 21.36C109.544 21.36 108.299 21.095 107.269 20.565C106.239 20.035 105.454 19.285 104.914 18.315C104.374 17.335 104.104 16.185 104.104 14.865V8.685H108.589V14.385ZM130.259 21V19.005C130.169 19.205 129.939 19.495 129.569 19.875C129.209 20.255 128.729 20.6 128.129 20.91C127.529 21.21 126.829 21.36 126.029 21.36C124.829 21.36 123.779 21.07 122.879 20.49C121.979 19.9 121.279 19.115 120.779 18.135C120.279 17.145 120.029 16.05 120.029 14.85C120.029 13.65 120.279 12.56 120.779 11.58C121.279 10.59 121.979 9.8 122.879 9.21C123.779 8.62 124.829 8.325 126.029 8.325C126.799 8.325 127.474 8.45 128.054 8.7C128.634 8.94 129.104 9.23 129.464 9.57C129.824 9.9 130.074 10.205 130.214 10.485V8.685H134.744V21H130.259ZM124.499 14.85C124.499 15.41 124.629 15.915 124.889 16.365C125.149 16.805 125.494 17.15 125.924 17.4C126.364 17.65 126.849 17.775 127.379 17.775C127.929 17.775 128.414 17.65 128.834 17.4C129.254 17.15 129.584 16.805 129.824 16.365C130.074 15.915 130.199 15.41 130.199 14.85C130.199 14.29 130.074 13.79 129.824 13.35C129.584 12.9 129.254 12.55 128.834 12.3C128.414 12.04 127.929 11.91 127.379 11.91C126.849 11.91 126.364 12.04 125.924 12.3C125.494 12.55 125.149 12.9 124.889 13.35C124.629 13.79 124.499 14.29 124.499 14.85ZM141.808 21H137.248V8.685H141.808V10.59H141.733C141.813 10.36 142.008 10.07 142.318 9.72C142.628 9.36 143.063 9.04 143.623 8.76C144.183 8.47 144.868 8.325 145.678 8.325C146.248 8.325 146.773 8.415 147.253 8.595C147.733 8.765 148.083 8.93 148.303 9.09L146.533 12.795C146.393 12.625 146.143 12.45 145.783 12.27C145.433 12.08 144.993 11.985 144.463 11.985C143.853 11.985 143.348 12.14 142.948 12.45C142.558 12.76 142.268 13.135 142.078 13.575C141.898 14.015 141.808 14.43 141.808 14.82V21ZM154.49 21.36C153.3 21.36 152.265 21.07 151.385 20.49C150.505 19.9 149.82 19.115 149.33 18.135C148.85 17.145 148.61 16.05 148.61 14.85C148.61 13.65 148.85 12.56 149.33 11.58C149.82 10.59 150.505 9.8 151.385 9.21C152.265 8.62 153.3 8.325 154.49 8.325C155.28 8.325 155.98 8.45 156.59 8.7C157.2 8.94 157.695 9.23 158.075 9.57C158.455 9.9 158.685 10.205 158.765 10.485V0.359999H163.325V21H158.81V19.005C158.62 19.375 158.31 19.745 157.88 20.115C157.45 20.475 156.945 20.77 156.365 21C155.785 21.24 155.16 21.36 154.49 21.36ZM155.885 17.775C156.435 17.775 156.925 17.65 157.355 17.4C157.795 17.15 158.14 16.805 158.39 16.365C158.64 15.915 158.765 15.41 158.765 14.85C158.765 14.29 158.64 13.79 158.39 13.35C158.14 12.9 157.795 12.55 157.355 12.3C156.925 12.04 156.435 11.91 155.885 11.91C155.355 11.91 154.875 12.04 154.445 12.3C154.025 12.55 153.69 12.9 153.44 13.35C153.2 13.79 153.08 14.29 153.08 14.85C153.08 15.41 153.2 15.915 153.44 16.365C153.69 16.805 154.025 17.15 154.445 17.4C154.875 17.65 155.355 17.775 155.885 17.775ZM185.337 1.2H189.822V13.365C189.822 14.995 189.502 16.41 188.862 17.61C188.222 18.8 187.307 19.725 186.117 20.385C184.927 21.035 183.507 21.36 181.857 21.36C180.197 21.36 178.767 21.035 177.567 20.385C176.367 19.725 175.447 18.8 174.807 17.61C174.177 16.41 173.862 14.995 173.862 13.365V1.2H178.332V13.125C178.332 14.025 178.472 14.785 178.752 15.405C179.042 16.025 179.452 16.495 179.982 16.815C180.512 17.125 181.137 17.28 181.857 17.28C182.567 17.28 183.182 17.125 183.702 16.815C184.222 16.495 184.622 16.025 184.902 15.405C185.192 14.785 185.337 14.025 185.337 13.125V1.2ZM201.484 8.325C202.344 8.325 203.184 8.5 204.004 8.85C204.824 9.2 205.499 9.755 206.029 10.515C206.559 11.265 206.824 12.255 206.824 13.485V21H202.249V14.235C202.249 13.355 202.039 12.695 201.619 12.255C201.199 11.805 200.649 11.58 199.969 11.58C199.519 11.58 199.094 11.7 198.694 11.94C198.304 12.17 197.984 12.5 197.734 12.93C197.494 13.35 197.374 13.835 197.374 14.385V21H192.814V8.685H197.374V10.5C197.494 10.17 197.744 9.84 198.124 9.51C198.514 9.17 198.999 8.89 199.579 8.67C200.169 8.44 200.804 8.325 201.484 8.325ZM209.624 21V8.685H214.184V21H209.624ZM211.964 6.15C211.244 6.15 210.634 5.9 210.134 5.4C209.634 4.89 209.384 4.285 209.384 3.585C209.384 2.885 209.634 2.28 210.134 1.77C210.644 1.25 211.254 0.989998 211.964 0.989998C212.434 0.989998 212.864 1.11 213.254 1.35C213.644 1.58 213.959 1.89 214.199 2.28C214.439 2.67 214.559 3.105 214.559 3.585C214.559 4.285 214.304 4.89 213.794 5.4C213.284 5.9 212.674 6.15 211.964 6.15ZM216.275 8.685H218.375V3.63H222.89V8.685H225.65V12.435H222.89V15.87C222.89 16.38 222.965 16.795 223.115 17.115C223.265 17.425 223.54 17.58 223.94 17.58C224.21 17.58 224.44 17.52 224.63 17.4C224.82 17.28 224.935 17.2 224.975 17.16L226.535 20.4C226.465 20.46 226.245 20.57 225.875 20.73C225.515 20.89 225.055 21.035 224.495 21.165C223.935 21.295 223.31 21.36 222.62 21.36C221.39 21.36 220.375 21.015 219.575 20.325C218.775 19.625 218.375 18.55 218.375 17.1V12.435H216.275V8.685ZM231.854 15.81C231.884 16.25 232.024 16.64 232.274 16.98C232.524 17.32 232.869 17.59 233.309 17.79C233.759 17.98 234.289 18.075 234.899 18.075C235.479 18.075 235.999 18.015 236.459 17.895C236.929 17.775 237.334 17.625 237.674 17.445C238.024 17.265 238.294 17.08 238.484 16.89L240.254 19.71C240.004 19.98 239.649 20.245 239.189 20.505C238.739 20.755 238.144 20.96 237.404 21.12C236.664 21.28 235.729 21.36 234.599 21.36C233.239 21.36 232.029 21.105 230.969 20.595C229.909 20.085 229.074 19.335 228.464 18.345C227.854 17.355 227.549 16.145 227.549 14.715C227.549 13.515 227.809 12.435 228.329 11.475C228.859 10.505 229.624 9.74 230.624 9.18C231.624 8.61 232.829 8.325 234.239 8.325C235.579 8.325 236.739 8.57 237.719 9.06C238.709 9.55 239.469 10.28 239.999 11.25C240.539 12.21 240.809 13.41 240.809 14.85C240.809 14.93 240.804 15.09 240.794 15.33C240.794 15.57 240.784 15.73 240.764 15.81H231.854ZM236.519 13.425C236.509 13.105 236.424 12.79 236.264 12.48C236.104 12.16 235.864 11.9 235.544 11.7C235.224 11.49 234.814 11.385 234.314 11.385C233.814 11.385 233.389 11.485 233.039 11.685C232.699 11.875 232.439 12.125 232.259 12.435C232.079 12.745 231.979 13.075 231.959 13.425H236.519ZM248.445 21.36C247.255 21.36 246.22 21.07 245.34 20.49C244.46 19.9 243.775 19.115 243.285 18.135C242.805 17.145 242.565 16.05 242.565 14.85C242.565 13.65 242.805 12.56 243.285 11.58C243.775 10.59 244.46 9.8 245.34 9.21C246.22 8.62 247.255 8.325 248.445 8.325C249.235 8.325 249.935 8.45 250.545 8.7C251.155 8.94 251.65 9.23 252.03 9.57C252.41 9.9 252.64 10.205 252.72 10.485V0.359999H257.28V21H252.765V19.005C252.575 19.375 252.265 19.745 251.835 20.115C251.405 20.475 250.9 20.77 250.32 21C249.74 21.24 249.115 21.36 248.445 21.36ZM249.84 17.775C250.39 17.775 250.88 17.65 251.31 17.4C251.75 17.15 252.095 16.805 252.345 16.365C252.595 15.915 252.72 15.41 252.72 14.85C252.72 14.29 252.595 13.79 252.345 13.35C252.095 12.9 251.75 12.55 251.31 12.3C250.88 12.04 250.39 11.91 249.84 11.91C249.31 11.91 248.83 12.04 248.4 12.3C247.98 12.55 247.645 12.9 247.395 13.35C247.155 13.79 247.035 14.29 247.035 14.85C247.035 15.41 247.155 15.915 247.395 16.365C247.645 16.805 247.98 17.15 248.4 17.4C248.83 17.65 249.31 17.775 249.84 17.775ZM0.7225 29.2H5.2075V49H0.7225V29.2ZM17.1627 36.325C18.0227 36.325 18.8627 36.5 19.6827 36.85C20.5027 37.2 21.1777 37.755 21.7077 38.515C22.2377 39.265 22.5027 40.255 22.5027 41.485V49H17.9277V42.235C17.9277 41.355 17.7177 40.695 17.2977 40.255C16.8777 39.805 16.3277 39.58 15.6477 39.58C15.1977 39.58 14.7727 39.7 14.3727 39.94C13.9827 40.17 13.6627 40.5 13.4127 40.93C13.1727 41.35 13.0527 41.835 13.0527 42.385V49H8.49273V36.685H13.0527V38.5C13.1727 38.17 13.4227 37.84 13.8027 37.51C14.1927 37.17 14.6777 36.89 15.2577 36.67C15.8477 36.44 16.4827 36.325 17.1627 36.325ZM24.0426 36.685H28.9176L31.8876 44.86L34.8726 36.685H39.7176L34.5576 49H29.2176L24.0426 36.685ZM45.1888 43.81C45.2188 44.25 45.3588 44.64 45.6088 44.98C45.8588 45.32 46.2038 45.59 46.6438 45.79C47.0938 45.98 47.6238 46.075 48.2338 46.075C48.8138 46.075 49.3338 46.015 49.7938 45.895C50.2638 45.775 50.6688 45.625 51.0088 45.445C51.3588 45.265 51.6288 45.08 51.8188 44.89L53.5888 47.71C53.3388 47.98 52.9838 48.245 52.5238 48.505C52.0738 48.755 51.4788 48.96 50.7388 49.12C49.9988 49.28 49.0638 49.36 47.9338 49.36C46.5738 49.36 45.3638 49.105 44.3038 48.595C43.2438 48.085 42.4088 47.335 41.7988 46.345C41.1888 45.355 40.8838 44.145 40.8838 42.715C40.8838 41.515 41.1438 40.435 41.6638 39.475C42.1938 38.505 42.9588 37.74 43.9588 37.18C44.9588 36.61 46.1638 36.325 47.5738 36.325C48.9138 36.325 50.0738 36.57 51.0538 37.06C52.0438 37.55 52.8038 38.28 53.3338 39.25C53.8738 40.21 54.1438 41.41 54.1438 42.85C54.1438 42.93 54.1388 43.09 54.1288 43.33C54.1288 43.57 54.1188 43.73 54.0988 43.81H45.1888ZM49.8538 41.425C49.8438 41.105 49.7588 40.79 49.5988 40.48C49.4388 40.16 49.1988 39.9 48.8788 39.7C48.5588 39.49 48.1488 39.385 47.6488 39.385C47.1488 39.385 46.7238 39.485 46.3738 39.685C46.0338 39.875 45.7738 40.125 45.5938 40.435C45.4138 40.745 45.3138 41.075 45.2938 41.425H49.8538ZM62.0202 36.325C62.8302 36.325 63.5702 36.395 64.2402 36.535C64.9102 36.665 65.4702 36.815 65.9202 36.985C66.3802 37.155 66.6752 37.295 66.8052 37.405L65.3202 40.09C65.1302 39.95 64.7752 39.77 64.2552 39.55C63.7452 39.33 63.1752 39.22 62.5452 39.22C62.0652 39.22 61.6602 39.295 61.3302 39.445C61.0002 39.585 60.8352 39.81 60.8352 40.12C60.8352 40.43 61.0152 40.68 61.3752 40.87C61.7452 41.05 62.2752 41.21 62.9652 41.35C63.5652 41.47 64.1752 41.66 64.7952 41.92C65.4152 42.18 65.9302 42.565 66.3402 43.075C66.7602 43.575 66.9702 44.245 66.9702 45.085C66.9702 45.945 66.7852 46.655 66.4152 47.215C66.0452 47.775 65.5552 48.21 64.9452 48.52C64.3352 48.83 63.6752 49.045 62.9652 49.165C62.2552 49.295 61.5652 49.36 60.8952 49.36C59.9552 49.36 59.1352 49.275 58.4352 49.105C57.7452 48.935 57.1852 48.74 56.7552 48.52C56.3252 48.3 56.0252 48.125 55.8552 47.995L57.3252 44.995C57.5852 45.215 58.0102 45.465 58.6002 45.745C59.1902 46.015 59.8152 46.15 60.4752 46.15C61.1152 46.15 61.6102 46.055 61.9602 45.865C62.3102 45.675 62.4852 45.425 62.4852 45.115C62.4852 44.865 62.4002 44.665 62.2302 44.515C62.0602 44.365 61.8202 44.235 61.5102 44.125C61.2002 44.015 60.8252 43.915 60.3852 43.825C59.9852 43.745 59.5602 43.62 59.1102 43.45C58.6602 43.28 58.2352 43.05 57.8352 42.76C57.4352 42.46 57.1102 42.085 56.8602 41.635C56.6102 41.185 56.4852 40.64 56.4852 40C56.4852 39.18 56.7502 38.5 57.2802 37.96C57.8102 37.42 58.4952 37.015 59.3352 36.745C60.1752 36.465 61.0702 36.325 62.0202 36.325ZM68.1358 36.685H70.2358V31.63H74.7508V36.685H77.5108V40.435H74.7508V43.87C74.7508 44.38 74.8258 44.795 74.9758 45.115C75.1258 45.425 75.4008 45.58 75.8008 45.58C76.0708 45.58 76.3008 45.52 76.4908 45.4C76.6808 45.28 76.7958 45.2 76.8358 45.16L78.3958 48.4C78.3258 48.46 78.1058 48.57 77.7358 48.73C77.3758 48.89 76.9158 49.035 76.3558 49.165C75.7958 49.295 75.1708 49.36 74.4808 49.36C73.2508 49.36 72.2358 49.015 71.4358 48.325C70.6358 47.625 70.2358 46.55 70.2358 45.1V40.435H68.1358V36.685ZM97.0192 36.325C97.9492 36.325 98.7692 36.52 99.4792 36.91C100.189 37.29 100.744 37.88 101.144 38.68C101.554 39.48 101.759 40.51 101.759 41.77V49H97.2742V42.46C97.2742 41.6 97.1442 40.905 96.8842 40.375C96.6242 39.845 96.1092 39.58 95.3392 39.58C94.8792 39.58 94.4742 39.7 94.1242 39.94C93.7742 40.18 93.5042 40.515 93.3142 40.945C93.1242 41.365 93.0292 41.87 93.0292 42.46V49H88.8442V42.46C88.8442 41.6 88.6992 40.905 88.4092 40.375C88.1292 39.845 87.6292 39.58 86.9092 39.58C86.4492 39.58 86.0442 39.7 85.6942 39.94C85.3442 40.17 85.0742 40.5 84.8842 40.93C84.7042 41.35 84.6142 41.86 84.6142 42.46V49H80.0842V36.685H84.6142V38.44C84.7342 38.13 84.9942 37.815 85.3942 37.495C85.8042 37.165 86.3092 36.89 86.9092 36.67C87.5092 36.44 88.1442 36.325 88.8142 36.325C89.5442 36.325 90.1542 36.435 90.6442 36.655C91.1342 36.865 91.5342 37.15 91.8442 37.51C92.1642 37.87 92.4192 38.26 92.6092 38.68C92.7492 38.32 93.0242 37.96 93.4342 37.6C93.8542 37.23 94.3742 36.925 94.9942 36.685C95.6242 36.445 96.2992 36.325 97.0192 36.325ZM108.031 43.81C108.061 44.25 108.201 44.64 108.451 44.98C108.701 45.32 109.046 45.59 109.486 45.79C109.936 45.98 110.466 46.075 111.076 46.075C111.656 46.075 112.176 46.015 112.636 45.895C113.106 45.775 113.511 45.625 113.851 45.445C114.201 45.265 114.471 45.08 114.661 44.89L116.431 47.71C116.181 47.98 115.826 48.245 115.366 48.505C114.916 48.755 114.321 48.96 113.581 49.12C112.841 49.28 111.906 49.36 110.776 49.36C109.416 49.36 108.206 49.105 107.146 48.595C106.086 48.085 105.251 47.335 104.641 46.345C104.031 45.355 103.726 44.145 103.726 42.715C103.726 41.515 103.986 40.435 104.506 39.475C105.036 38.505 105.801 37.74 106.801 37.18C107.801 36.61 109.006 36.325 110.416 36.325C111.756 36.325 112.916 36.57 113.896 37.06C114.886 37.55 115.646 38.28 116.176 39.25C116.716 40.21 116.986 41.41 116.986 42.85C116.986 42.93 116.981 43.09 116.971 43.33C116.971 43.57 116.961 43.73 116.941 43.81H108.031ZM112.696 41.425C112.686 41.105 112.601 40.79 112.441 40.48C112.281 40.16 112.041 39.9 111.721 39.7C111.401 39.49 110.991 39.385 110.491 39.385C109.991 39.385 109.566 39.485 109.216 39.685C108.876 39.875 108.616 40.125 108.436 40.435C108.256 40.745 108.156 41.075 108.136 41.425H112.696ZM127.817 36.325C128.677 36.325 129.517 36.5 130.337 36.85C131.157 37.2 131.832 37.755 132.362 38.515C132.892 39.265 133.157 40.255 133.157 41.485V49H128.582V42.235C128.582 41.355 128.372 40.695 127.952 40.255C127.532 39.805 126.982 39.58 126.302 39.58C125.852 39.58 125.427 39.7 125.027 39.94C124.637 40.17 124.317 40.5 124.067 40.93C123.827 41.35 123.707 41.835 123.707 42.385V49H119.147V36.685H123.707V38.5C123.827 38.17 124.077 37.84 124.457 37.51C124.847 37.17 125.332 36.89 125.912 36.67C126.502 36.44 127.137 36.325 127.817 36.325ZM134.757 36.685H136.857V31.63H141.372V36.685H144.132V40.435H141.372V43.87C141.372 44.38 141.447 44.795 141.597 45.115C141.747 45.425 142.022 45.58 142.422 45.58C142.692 45.58 142.922 45.52 143.112 45.4C143.302 45.28 143.417 45.2 143.457 45.16L145.017 48.4C144.947 48.46 144.727 48.57 144.357 48.73C143.997 48.89 143.537 49.035 142.977 49.165C142.417 49.295 141.792 49.36 141.102 49.36C139.872 49.36 138.857 49.015 138.057 48.325C137.257 47.625 136.857 46.55 136.857 45.1V40.435H134.757V36.685ZM165.115 44.92C166.035 44.92 166.87 44.785 167.62 44.515C168.38 44.245 168.945 43.98 169.315 43.72L171.235 47.53C170.765 47.93 169.96 48.335 168.82 48.745C167.69 49.155 166.345 49.36 164.785 49.36C163.325 49.36 161.955 49.105 160.675 48.595C159.395 48.085 158.265 47.37 157.285 46.45C156.315 45.52 155.55 44.435 154.99 43.195C154.44 41.945 154.165 40.59 154.165 39.13C154.165 37.67 154.44 36.315 154.99 35.065C155.54 33.805 156.3 32.71 157.27 31.78C158.25 30.85 159.38 30.13 160.66 29.62C161.95 29.1 163.325 28.84 164.785 28.84C166.345 28.84 167.69 29.045 168.82 29.455C169.96 29.865 170.765 30.27 171.235 30.67L169.315 34.48C168.945 34.21 168.38 33.945 167.62 33.685C166.87 33.415 166.035 33.28 165.115 33.28C164.095 33.28 163.205 33.44 162.445 33.76C161.685 34.07 161.05 34.5 160.54 35.05C160.03 35.6 159.65 36.22 159.4 36.91C159.15 37.6 159.025 38.325 159.025 39.085C159.025 39.855 159.15 40.59 159.4 41.29C159.65 41.98 160.03 42.6 160.54 43.15C161.05 43.7 161.685 44.135 162.445 44.455C163.205 44.765 164.095 44.92 165.115 44.92ZM180.251 49.36C178.901 49.36 177.701 49.085 176.651 48.535C175.611 47.975 174.791 47.21 174.191 46.24C173.601 45.26 173.306 44.14 173.306 42.88C173.306 41.62 173.601 40.5 174.191 39.52C174.791 38.53 175.611 37.75 176.651 37.18C177.701 36.61 178.901 36.325 180.251 36.325C181.601 36.325 182.791 36.61 183.821 37.18C184.851 37.75 185.656 38.53 186.236 39.52C186.816 40.5 187.106 41.62 187.106 42.88C187.106 44.14 186.816 45.26 186.236 46.24C185.656 47.21 184.851 47.975 183.821 48.535C182.791 49.085 181.601 49.36 180.251 49.36ZM180.251 45.61C180.771 45.61 181.221 45.495 181.601 45.265C181.981 45.035 182.276 44.71 182.486 44.29C182.696 43.87 182.801 43.395 182.801 42.865C182.801 42.325 182.696 41.845 182.486 41.425C182.276 41.005 181.981 40.675 181.601 40.435C181.221 40.195 180.771 40.075 180.251 40.075C179.731 40.075 179.276 40.195 178.886 40.435C178.506 40.675 178.206 41.005 177.986 41.425C177.776 41.845 177.671 42.325 177.671 42.865C177.671 43.395 177.776 43.87 177.986 44.29C178.206 44.71 178.506 45.035 178.886 45.265C179.276 45.495 179.731 45.61 180.251 45.61ZM197.954 36.325C198.814 36.325 199.654 36.5 200.474 36.85C201.294 37.2 201.969 37.755 202.499 38.515C203.029 39.265 203.294 40.255 203.294 41.485V49H198.719V42.235C198.719 41.355 198.509 40.695 198.089 40.255C197.669 39.805 197.119 39.58 196.439 39.58C195.989 39.58 195.564 39.7 195.164 39.94C194.774 40.17 194.454 40.5 194.204 40.93C193.964 41.35 193.844 41.835 193.844 42.385V49H189.284V36.685H193.844V38.5C193.964 38.17 194.214 37.84 194.594 37.51C194.984 37.17 195.469 36.89 196.049 36.67C196.639 36.44 197.274 36.325 197.954 36.325ZM211.464 36.325C212.274 36.325 213.014 36.395 213.684 36.535C214.354 36.665 214.914 36.815 215.364 36.985C215.824 37.155 216.119 37.295 216.249 37.405L214.764 40.09C214.574 39.95 214.219 39.77 213.699 39.55C213.189 39.33 212.619 39.22 211.989 39.22C211.509 39.22 211.104 39.295 210.774 39.445C210.444 39.585 210.279 39.81 210.279 40.12C210.279 40.43 210.459 40.68 210.819 40.87C211.189 41.05 211.719 41.21 212.409 41.35C213.009 41.47 213.619 41.66 214.239 41.92C214.859 42.18 215.374 42.565 215.784 43.075C216.204 43.575 216.414 44.245 216.414 45.085C216.414 45.945 216.229 46.655 215.859 47.215C215.489 47.775 214.999 48.21 214.389 48.52C213.779 48.83 213.119 49.045 212.409 49.165C211.699 49.295 211.009 49.36 210.339 49.36C209.399 49.36 208.579 49.275 207.879 49.105C207.189 48.935 206.629 48.74 206.199 48.52C205.769 48.3 205.469 48.125 205.299 47.995L206.769 44.995C207.029 45.215 207.454 45.465 208.044 45.745C208.634 46.015 209.259 46.15 209.919 46.15C210.559 46.15 211.054 46.055 211.404 45.865C211.754 45.675 211.929 45.425 211.929 45.115C211.929 44.865 211.844 44.665 211.674 44.515C211.504 44.365 211.264 44.235 210.954 44.125C210.644 44.015 210.269 43.915 209.829 43.825C209.429 43.745 209.004 43.62 208.554 43.45C208.104 43.28 207.679 43.05 207.279 42.76C206.879 42.46 206.554 42.085 206.304 41.635C206.054 41.185 205.929 40.64 205.929 40C205.929 39.18 206.194 38.5 206.724 37.96C207.254 37.42 207.939 37.015 208.779 36.745C209.619 36.465 210.514 36.325 211.464 36.325ZM223.154 42.385C223.154 43.365 223.339 44.15 223.709 44.74C224.079 45.32 224.699 45.61 225.569 45.61C226.459 45.61 227.084 45.32 227.444 44.74C227.814 44.15 227.999 43.365 227.999 42.385V36.685H232.499V42.865C232.499 44.185 232.224 45.335 231.674 46.315C231.134 47.285 230.349 48.035 229.319 48.565C228.289 49.095 227.039 49.36 225.569 49.36C224.109 49.36 222.864 49.095 221.834 48.565C220.804 48.035 220.019 47.285 219.479 46.315C218.939 45.335 218.669 44.185 218.669 42.865V36.685H223.154V42.385ZM239.83 49H235.255V28.36H239.83V49ZM241.72 36.685H243.82V31.63H248.335V36.685H251.095V40.435H248.335V43.87C248.335 44.38 248.41 44.795 248.56 45.115C248.71 45.425 248.985 45.58 249.385 45.58C249.655 45.58 249.885 45.52 250.075 45.4C250.265 45.28 250.38 45.2 250.42 45.16L251.98 48.4C251.91 48.46 251.69 48.57 251.32 48.73C250.96 48.89 250.5 49.035 249.94 49.165C249.38 49.295 248.755 49.36 248.065 49.36C246.835 49.36 245.82 49.015 245.02 48.325C244.22 47.625 243.82 46.55 243.82 45.1V40.435H241.72V36.685ZM253.818 49V36.685H258.378V49H253.818ZM256.158 34.15C255.438 34.15 254.828 33.9 254.328 33.4C253.828 32.89 253.578 32.285 253.578 31.585C253.578 30.885 253.828 30.28 254.328 29.77C254.838 29.25 255.448 28.99 256.158 28.99C256.628 28.99 257.058 29.11 257.448 29.35C257.838 29.58 258.153 29.89 258.393 30.28C258.633 30.67 258.753 31.105 258.753 31.585C258.753 32.285 258.498 32.89 257.988 33.4C257.478 33.9 256.868 34.15 256.158 34.15ZM269.995 36.325C270.855 36.325 271.695 36.5 272.515 36.85C273.335 37.2 274.01 37.755 274.54 38.515C275.07 39.265 275.335 40.255 275.335 41.485V49H270.76V42.235C270.76 41.355 270.55 40.695 270.13 40.255C269.71 39.805 269.16 39.58 268.48 39.58C268.03 39.58 267.605 39.7 267.205 39.94C266.815 40.17 266.495 40.5 266.245 40.93C266.005 41.35 265.885 41.835 265.885 42.385V49H261.325V36.685H265.885V38.5C266.005 38.17 266.255 37.84 266.635 37.51C267.025 37.17 267.51 36.89 268.09 36.67C268.68 36.44 269.315 36.325 269.995 36.325ZM284.45 55.585C283.59 55.585 282.735 55.51 281.885 55.36C281.045 55.21 280.26 54.955 279.53 54.595C278.8 54.235 278.185 53.74 277.685 53.11L280.355 50.335C280.585 50.605 280.865 50.87 281.195 51.13C281.535 51.39 281.95 51.605 282.44 51.775C282.94 51.945 283.545 52.03 284.255 52.03C284.915 52.03 285.49 51.915 285.98 51.685C286.47 51.455 286.85 51.12 287.12 50.68C287.4 50.24 287.54 49.705 287.54 49.075V48.775H292.025V49.345C292.025 50.705 291.685 51.85 291.005 52.78C290.335 53.71 289.43 54.41 288.29 54.88C287.15 55.35 285.87 55.585 284.45 55.585ZM287.54 49V47.005C287.45 47.205 287.22 47.495 286.85 47.875C286.49 48.255 286.01 48.6 285.41 48.91C284.81 49.21 284.11 49.36 283.31 49.36C282.11 49.36 281.06 49.07 280.16 48.49C279.26 47.9 278.56 47.115 278.06 46.135C277.56 45.145 277.31 44.05 277.31 42.85C277.31 41.65 277.56 40.56 278.06 39.58C278.56 38.59 279.26 37.8 280.16 37.21C281.06 36.62 282.11 36.325 283.31 36.325C284.08 36.325 284.755 36.45 285.335 36.7C285.915 36.94 286.385 37.23 286.745 37.57C287.105 37.9 287.355 38.205 287.495 38.485V36.685H292.025V49H287.54ZM281.78 42.85C281.78 43.41 281.91 43.915 282.17 44.365C282.43 44.805 282.775 45.15 283.205 45.4C283.645 45.65 284.13 45.775 284.66 45.775C285.21 45.775 285.695 45.65 286.115 45.4C286.535 45.15 286.865 44.805 287.105 44.365C287.355 43.915 287.48 43.41 287.48 42.85C287.48 42.29 287.355 41.79 287.105 41.35C286.865 40.9 286.535 40.55 286.115 40.3C285.695 40.04 285.21 39.91 284.66 39.91C284.13 39.91 283.645 40.04 283.205 40.3C282.775 40.55 282.43 40.9 282.17 41.35C281.91 41.79 281.78 42.29 281.78 42.85Z" fill="#043576"/>
<path d="M71.6542 62.8H73.7542V70.97C73.7542 72.0567 73.5376 72.9967 73.1042 73.79C72.6776 74.5767 72.0809 75.1833 71.3142 75.61C70.5476 76.03 69.6542 76.24 68.6342 76.24C67.6209 76.24 66.7276 76.03 65.9542 75.61C65.1809 75.1833 64.5776 74.5767 64.1442 73.79C63.7109 72.9967 63.4942 72.0567 63.4942 70.97V62.8H65.5942V70.86C65.5942 71.58 65.7242 72.1967 65.9842 72.71C66.2509 73.2233 66.6109 73.6167 67.0642 73.89C67.5242 74.1633 68.0476 74.3 68.6342 74.3C69.2209 74.3 69.7409 74.1633 70.1942 73.89C70.6476 73.6167 71.0042 73.2233 71.2642 72.71C71.5242 72.1967 71.6542 71.58 71.6542 70.86V62.8ZM80.4633 62.56C81.2366 62.56 81.9066 62.65 82.4733 62.83C83.0466 63.0033 83.4999 63.19 83.8333 63.39C84.1666 63.5833 84.3666 63.71 84.4333 63.77L83.3833 65.48C83.2833 65.3933 83.1033 65.2733 82.8433 65.12C82.5899 64.96 82.2766 64.8167 81.9033 64.69C81.5366 64.5633 81.1266 64.5 80.6733 64.5C79.9933 64.5 79.4533 64.6333 79.0533 64.9C78.6533 65.16 78.4533 65.54 78.4533 66.04C78.4533 66.3733 78.5599 66.6667 78.7733 66.92C78.9866 67.1733 79.2899 67.41 79.6833 67.63C80.0833 67.85 80.5599 68.0733 81.1133 68.3C81.5799 68.4933 82.0333 68.7133 82.4733 68.96C82.9199 69.2067 83.3199 69.4967 83.6733 69.83C84.0266 70.1633 84.3066 70.55 84.5133 70.99C84.7266 71.43 84.8333 71.9367 84.8333 72.51C84.8333 73.11 84.7099 73.6433 84.4633 74.11C84.2166 74.57 83.8766 74.96 83.4433 75.28C83.0099 75.5933 82.5099 75.8333 81.9433 76C81.3833 76.16 80.7833 76.24 80.1433 76.24C79.3033 76.24 78.5466 76.14 77.8733 75.94C77.2066 75.7333 76.6666 75.52 76.2533 75.3C75.8399 75.0733 75.5999 74.9267 75.5333 74.86L76.6433 73.07C76.7233 73.1367 76.8699 73.2367 77.0833 73.37C77.3033 73.4967 77.5733 73.6333 77.8933 73.78C78.2133 73.92 78.5666 74.04 78.9533 74.14C79.3466 74.2333 79.7533 74.28 80.1733 74.28C80.9799 74.28 81.5899 74.1067 82.0033 73.76C82.4166 73.4067 82.6233 72.9533 82.6233 72.4C82.6233 71.98 82.4899 71.6167 82.2233 71.31C81.9633 70.9967 81.6033 70.7133 81.1433 70.46C80.6899 70.2067 80.1733 69.9567 79.5933 69.71C78.9999 69.45 78.4499 69.1567 77.9433 68.83C77.4433 68.5033 77.0399 68.1067 76.7333 67.64C76.4266 67.1667 76.2733 66.5933 76.2733 65.92C76.2733 65.2467 76.4633 64.66 76.8433 64.16C77.2299 63.6533 77.7399 63.26 78.3733 62.98C79.0066 62.7 79.7033 62.56 80.4633 62.56ZM90.595 60.66H91.885V62.93H90.595V60.66ZM90.595 75.79H91.885V78.06H90.595V75.79ZM91.225 62.56C91.9983 62.56 92.6683 62.65 93.235 62.83C93.8083 63.0033 94.2617 63.19 94.595 63.39C94.9283 63.5833 95.1283 63.71 95.195 63.77L94.145 65.48C94.045 65.3933 93.865 65.2733 93.605 65.12C93.3517 64.96 93.0383 64.8167 92.665 64.69C92.2983 64.5633 91.8883 64.5 91.435 64.5C90.755 64.5 90.215 64.6333 89.815 64.9C89.415 65.16 89.215 65.54 89.215 66.04C89.215 66.3733 89.3217 66.6667 89.535 66.92C89.7483 67.1733 90.0517 67.41 90.445 67.63C90.845 67.85 91.3217 68.0733 91.875 68.3C92.3417 68.4933 92.795 68.7133 93.235 68.96C93.6817 69.2067 94.0817 69.4967 94.435 69.83C94.7883 70.1633 95.0683 70.55 95.275 70.99C95.4883 71.43 95.595 71.9367 95.595 72.51C95.595 73.11 95.4717 73.6433 95.225 74.11C94.9783 74.57 94.6383 74.96 94.205 75.28C93.7717 75.5933 93.2717 75.8333 92.705 76C92.145 76.16 91.545 76.24 90.905 76.24C90.065 76.24 89.3083 76.14 88.635 75.94C87.9683 75.7333 87.4283 75.52 87.015 75.3C86.6017 75.0733 86.3617 74.9267 86.295 74.86L87.405 73.07C87.485 73.1367 87.6317 73.2367 87.845 73.37C88.065 73.4967 88.335 73.6333 88.655 73.78C88.975 73.92 89.3283 74.04 89.715 74.14C90.1083 74.2333 90.515 74.28 90.935 74.28C91.7417 74.28 92.3517 74.1067 92.765 73.76C93.1783 73.4067 93.385 72.9533 93.385 72.4C93.385 71.98 93.2517 71.6167 92.985 71.31C92.725 70.9967 92.365 70.7133 91.905 70.46C91.4517 70.2067 90.935 69.9567 90.355 69.71C89.7617 69.45 89.2117 69.1567 88.705 68.83C88.205 68.5033 87.8017 68.1067 87.495 67.64C87.1883 67.1667 87.035 66.5933 87.035 65.92C87.035 65.2467 87.225 64.66 87.605 64.16C87.9917 63.6533 88.5017 63.26 89.135 62.98C89.7683 62.7 90.465 62.56 91.225 62.56ZM107.145 64.39C106.632 64.39 106.178 64.5 105.785 64.72C105.398 64.9333 105.075 65.1867 104.815 65.48C104.555 65.7733 104.355 66.04 104.215 66.28C104.082 66.52 104.008 66.6533 103.995 66.68L102.165 65.86C102.178 65.8 102.242 65.65 102.355 65.41C102.468 65.1633 102.645 64.8833 102.885 64.57C103.125 64.25 103.435 63.9367 103.815 63.63C104.202 63.3233 104.668 63.07 105.215 62.87C105.768 62.6633 106.412 62.56 107.145 62.56C107.938 62.56 108.612 62.67 109.165 62.89C109.718 63.11 110.168 63.4133 110.515 63.8C110.862 64.18 111.115 64.6167 111.275 65.11C111.435 65.6033 111.515 66.1233 111.515 66.67C111.515 67.23 111.385 67.7967 111.125 68.37C110.872 68.9433 110.542 69.5 110.135 70.04C109.728 70.5733 109.292 71.0733 108.825 71.54C108.358 72.0067 107.905 72.4233 107.465 72.79C107.032 73.1567 106.658 73.4567 106.345 73.69C106.038 73.9233 105.845 74.07 105.765 74.13H111.405V76H102.525V74.3C102.698 74.16 102.982 73.9367 103.375 73.63C103.775 73.3233 104.235 72.96 104.755 72.54C105.275 72.1133 105.802 71.65 106.335 71.15C106.875 70.65 107.375 70.1367 107.835 69.61C108.302 69.0833 108.675 68.5667 108.955 68.06C109.242 67.5533 109.385 67.08 109.385 66.64C109.385 65.8133 109.192 65.2333 108.805 64.9C108.418 64.56 107.865 64.39 107.145 64.39ZM115.65 76.24C115.243 76.24 114.893 76.0967 114.6 75.81C114.313 75.5167 114.17 75.1633 114.17 74.75C114.17 74.3367 114.313 73.9833 114.6 73.69C114.893 73.3967 115.243 73.25 115.65 73.25C116.07 73.25 116.423 73.3967 116.71 73.69C117.003 73.9833 117.15 74.3367 117.15 74.75C117.15 75.1633 117.003 75.5167 116.71 75.81C116.423 76.0967 116.07 76.24 115.65 76.24ZM124.782 67.34C125.509 67.34 126.189 67.5233 126.822 67.89C127.462 68.25 127.982 68.76 128.382 69.42C128.782 70.08 128.982 70.8467 128.982 71.72C128.982 72.5933 128.769 73.37 128.342 74.05C127.916 74.73 127.342 75.2667 126.622 75.66C125.909 76.0467 125.122 76.24 124.262 76.24C123.382 76.24 122.586 76.05 121.872 75.67C121.166 75.29 120.602 74.75 120.182 74.05C119.762 73.35 119.552 72.5267 119.552 71.58C119.552 70.5733 119.722 69.7233 120.062 69.03C120.402 68.33 120.799 67.7 121.252 67.14L124.752 62.8H127.242L122.982 67.91C123.109 67.7767 123.326 67.65 123.632 67.53C123.939 67.4033 124.322 67.34 124.782 67.34ZM124.282 74.48C124.776 74.48 125.226 74.36 125.632 74.12C126.046 73.8733 126.372 73.5467 126.612 73.14C126.859 72.7267 126.982 72.27 126.982 71.77C126.982 71.27 126.859 70.8167 126.612 70.41C126.372 69.9967 126.046 69.67 125.632 69.43C125.226 69.19 124.776 69.07 124.282 69.07C123.782 69.07 123.326 69.19 122.912 69.43C122.499 69.67 122.169 69.9967 121.922 70.41C121.682 70.8167 121.562 71.27 121.562 71.77C121.562 72.27 121.682 72.7267 121.922 73.14C122.169 73.5467 122.499 73.8733 122.912 74.12C123.326 74.36 123.782 74.48 124.282 74.48ZM136.095 62.8H140.035C140.761 62.8 141.441 62.9 142.075 63.1C142.715 63.2933 143.231 63.6233 143.625 64.09C144.018 64.55 144.215 65.1867 144.215 66C144.215 66.5467 144.108 67.04 143.895 67.48C143.688 67.92 143.425 68.2767 143.105 68.55C142.785 68.8233 142.458 68.99 142.125 69.05C142.405 69.0767 142.698 69.1633 143.005 69.31C143.318 69.45 143.611 69.65 143.885 69.91C144.165 70.17 144.391 70.4967 144.565 70.89C144.738 71.2833 144.825 71.7433 144.825 72.27C144.825 73.0033 144.671 73.65 144.365 74.21C144.058 74.77 143.601 75.21 142.995 75.53C142.388 75.8433 141.628 76 140.715 76H136.095V62.8ZM138.195 74.27H140.375C140.948 74.27 141.395 74.1733 141.715 73.98C142.041 73.7867 142.275 73.53 142.415 73.21C142.555 72.8833 142.625 72.5267 142.625 72.14C142.625 71.5067 142.421 71.01 142.015 70.65C141.608 70.29 141.025 70.11 140.265 70.11H138.195V74.27ZM138.195 68.41H140.095C140.555 68.41 140.935 68.3167 141.235 68.13C141.535 67.9367 141.758 67.6833 141.905 67.37C142.051 67.05 142.125 66.7167 142.125 66.37C142.125 65.67 141.921 65.19 141.515 64.93C141.108 64.6633 140.565 64.53 139.885 64.53H138.195V68.41ZM147.005 76V67.79H149.135V76H147.005ZM148.095 65.33C147.735 65.33 147.425 65.2 147.165 64.94C146.912 64.68 146.785 64.37 146.785 64.01C146.785 63.65 146.912 63.34 147.165 63.08C147.425 62.8133 147.735 62.68 148.095 62.68C148.335 62.68 148.555 62.7433 148.755 62.87C148.962 62.99 149.125 63.15 149.245 63.35C149.372 63.5433 149.435 63.7633 149.435 64.01C149.435 64.37 149.305 64.68 149.045 64.94C148.785 65.2 148.469 65.33 148.095 65.33ZM153.811 76H151.661V62.24H153.811V76ZM158.322 76H156.172V62.24H158.322V76ZM160.814 76V67.79H162.944V76H160.814ZM161.904 65.33C161.544 65.33 161.234 65.2 160.974 64.94C160.721 64.68 160.594 64.37 160.594 64.01C160.594 63.65 160.721 63.34 160.974 63.08C161.234 62.8133 161.544 62.68 161.904 62.68C162.144 62.68 162.364 62.7433 162.564 62.87C162.771 62.99 162.934 63.15 163.054 63.35C163.181 63.5433 163.244 63.7633 163.244 64.01C163.244 64.37 163.114 64.68 162.854 64.94C162.594 65.2 162.277 65.33 161.904 65.33ZM169.349 76.24C168.489 76.24 167.723 76.0533 167.049 75.68C166.383 75.3 165.859 74.7867 165.479 74.14C165.099 73.4867 164.909 72.7467 164.909 71.92C164.909 71.0933 165.099 70.35 165.479 69.69C165.859 69.03 166.383 68.51 167.049 68.13C167.723 67.7433 168.489 67.55 169.349 67.55C170.209 67.55 170.969 67.7433 171.629 68.13C172.289 68.51 172.806 69.03 173.179 69.69C173.559 70.35 173.749 71.0933 173.749 71.92C173.749 72.7467 173.559 73.4867 173.179 74.14C172.806 74.7867 172.289 75.3 171.629 75.68C170.969 76.0533 170.209 76.24 169.349 76.24ZM169.349 74.44C169.829 74.44 170.246 74.33 170.599 74.11C170.953 73.89 171.226 73.59 171.419 73.21C171.613 72.83 171.709 72.3967 171.709 71.91C171.709 71.4233 171.613 70.99 171.419 70.61C171.226 70.2233 170.953 69.9167 170.599 69.69C170.246 69.4633 169.829 69.35 169.349 69.35C168.869 69.35 168.449 69.4633 168.089 69.69C167.736 69.9167 167.459 70.2233 167.259 70.61C167.066 70.99 166.969 71.4233 166.969 71.91C166.969 72.3967 167.066 72.83 167.259 73.21C167.459 73.59 167.736 73.89 168.089 74.11C168.449 74.33 168.869 74.44 169.349 74.44ZM180.466 67.55C181.02 67.55 181.556 67.6633 182.076 67.89C182.596 68.1167 183.023 68.48 183.356 68.98C183.696 69.4733 183.866 70.1167 183.866 70.91V76H181.716V71.3C181.716 70.56 181.54 70.0167 181.186 69.67C180.84 69.3167 180.39 69.14 179.836 69.14C179.47 69.14 179.12 69.2433 178.786 69.45C178.453 69.6567 178.18 69.9367 177.966 70.29C177.76 70.6433 177.656 71.05 177.656 71.51V76H175.516V67.79H177.656V69.17C177.716 68.9433 177.876 68.7067 178.136 68.46C178.403 68.2067 178.74 67.9933 179.146 67.82C179.553 67.64 179.993 67.55 180.466 67.55ZM195.194 62.8H197.344L202.324 76H200.084L198.994 72.98H193.554L192.454 76H190.204L195.194 62.8ZM194.234 71.11H198.314L196.284 65.36H196.254L194.234 71.11ZM211.693 62.8H213.793V70.97C213.793 72.0567 213.577 72.9967 213.143 73.79C212.717 74.5767 212.12 75.1833 211.353 75.61C210.587 76.03 209.693 76.24 208.673 76.24C207.66 76.24 206.767 76.03 205.993 75.61C205.22 75.1833 204.617 74.5767 204.183 73.79C203.75 72.9967 203.533 72.0567 203.533 70.97V62.8H205.633V70.86C205.633 71.58 205.763 72.1967 206.023 72.71C206.29 73.2233 206.65 73.6167 207.103 73.89C207.563 74.1633 208.087 74.3 208.673 74.3C209.26 74.3 209.78 74.1633 210.233 73.89C210.687 73.6167 211.043 73.2233 211.303 72.71C211.563 72.1967 211.693 71.58 211.693 70.86V62.8ZM228.772 62.8V76H226.672V67.01L226.772 65.32L226.372 67.22L223.482 75.16H221.412L218.532 67.22L218.132 65.32L218.232 67.01V76H216.132V62.8H219.002L222.302 72.68L222.452 73.47L222.592 72.68L225.912 62.8H228.772Z" fill="black"/>
</svg>
