<svg width="300" height="72" viewBox="0 0 300 72" fill="none" xmlns="http://www.w3.org/2000/svg">
<rect width="300" height="72" fill="white"/>
<path d="M19.41 30H14.678L8.098 11.52H12.816L17.044 24.666L21.272 11.52H25.99L19.41 30ZM35.1838 30V28.138C35.0998 28.3247 34.8852 28.5953 34.5398 28.95C34.2038 29.3047 33.7558 29.6267 33.1958 29.916C32.6358 30.196 31.9825 30.336 31.2358 30.336C30.1158 30.336 29.1358 30.0653 28.2958 29.524C27.4558 28.9733 26.8025 28.2407 26.3358 27.326C25.8692 26.402 25.6358 25.38 25.6358 24.26C25.6358 23.14 25.8692 22.1227 26.3358 21.208C26.8025 20.284 27.4558 19.5467 28.2958 18.996C29.1358 18.4453 30.1158 18.17 31.2358 18.17C31.9545 18.17 32.5845 18.2867 33.1258 18.52C33.6672 18.744 34.1058 19.0147 34.4418 19.332C34.7778 19.64 35.0112 19.9247 35.1418 20.186V18.506H39.3698V30H35.1838ZM29.8078 24.26C29.8078 24.7827 29.9292 25.254 30.1718 25.674C30.4145 26.0847 30.7365 26.4067 31.1378 26.64C31.5485 26.8733 32.0012 26.99 32.4958 26.99C33.0092 26.99 33.4618 26.8733 33.8538 26.64C34.2458 26.4067 34.5538 26.0847 34.7778 25.674C35.0112 25.254 35.1278 24.7827 35.1278 24.26C35.1278 23.7373 35.0112 23.2707 34.7778 22.86C34.5538 22.44 34.2458 22.1133 33.8538 21.88C33.4618 21.6373 33.0092 21.516 32.4958 21.516C32.0012 21.516 31.5485 21.6373 31.1378 21.88C30.7365 22.1133 30.4145 22.44 30.1718 22.86C29.9292 23.2707 29.8078 23.7373 29.8078 24.26ZM49.9805 18.17C50.7832 18.17 51.5672 18.3333 52.3325 18.66C53.0979 18.9867 53.7279 19.5047 54.2225 20.214C54.7172 20.914 54.9645 21.838 54.9645 22.986V30H50.6945V23.686C50.6945 22.8647 50.4985 22.2487 50.1065 21.838C49.7145 21.418 49.2012 21.208 48.5665 21.208C48.1465 21.208 47.7499 21.32 47.3765 21.544C47.0125 21.7587 46.7139 22.0667 46.4805 22.468C46.2565 22.86 46.1445 23.3127 46.1445 23.826V30H41.8885V18.506H46.1445V20.2C46.2565 19.892 46.4899 19.584 46.8445 19.276C47.2085 18.9587 47.6612 18.6973 48.2025 18.492C48.7532 18.2773 49.3459 18.17 49.9805 18.17ZM63.4717 36.146C62.6691 36.146 61.8711 36.076 61.0777 35.936C60.2937 35.796 59.5611 35.558 58.8797 35.222C58.1984 34.886 57.6244 34.424 57.1577 33.836L59.6497 31.246C59.8644 31.498 60.1257 31.7453 60.4337 31.988C60.7511 32.2307 61.1384 32.4313 61.5957 32.59C62.0624 32.7487 62.6271 32.828 63.2897 32.828C63.9057 32.828 64.4424 32.7207 64.8997 32.506C65.3571 32.2913 65.7117 31.9787 65.9637 31.568C66.2251 31.1573 66.3557 30.658 66.3557 30.07V29.79H70.5417V30.322C70.5417 31.5913 70.2244 32.66 69.5897 33.528C68.9644 34.396 68.1197 35.0493 67.0557 35.488C65.9917 35.9267 64.7971 36.146 63.4717 36.146ZM66.3557 30V28.138C66.2717 28.3247 66.0571 28.5953 65.7117 28.95C65.3757 29.3047 64.9277 29.6267 64.3677 29.916C63.8077 30.196 63.1544 30.336 62.4077 30.336C61.2877 30.336 60.3077 30.0653 59.4677 29.524C58.6277 28.9733 57.9744 28.2407 57.5077 27.326C57.0411 26.402 56.8077 25.38 56.8077 24.26C56.8077 23.14 57.0411 22.1227 57.5077 21.208C57.9744 20.284 58.6277 19.5467 59.4677 18.996C60.3077 18.4453 61.2877 18.17 62.4077 18.17C63.1264 18.17 63.7564 18.2867 64.2977 18.52C64.8391 18.744 65.2777 19.0147 65.6137 19.332C65.9497 19.64 66.1831 19.9247 66.3137 20.186V18.506H70.5417V30H66.3557ZM60.9797 24.26C60.9797 24.7827 61.1011 25.254 61.3437 25.674C61.5864 26.0847 61.9084 26.4067 62.3097 26.64C62.7204 26.8733 63.1731 26.99 63.6677 26.99C64.1811 26.99 64.6337 26.8733 65.0257 26.64C65.4177 26.4067 65.7257 26.0847 65.9497 25.674C66.1831 25.254 66.2997 24.7827 66.2997 24.26C66.2997 23.7373 66.1831 23.2707 65.9497 22.86C65.7257 22.44 65.4177 22.1133 65.0257 21.88C64.6337 21.6373 64.1811 21.516 63.6677 21.516C63.1731 21.516 62.7204 21.6373 62.3097 21.88C61.9084 22.1133 61.5864 22.44 61.3437 22.86C61.1011 23.2707 60.9797 23.7373 60.9797 24.26ZM77.3018 23.826C77.3018 24.7407 77.4744 25.4733 77.8198 26.024C78.1651 26.5653 78.7438 26.836 79.5558 26.836C80.3864 26.836 80.9698 26.5653 81.3058 26.024C81.6511 25.4733 81.8238 24.7407 81.8238 23.826V18.506H86.0238V24.274C86.0238 25.506 85.7671 26.5793 85.2538 27.494C84.7498 28.3993 84.0171 29.0993 83.0558 29.594C82.0944 30.0887 80.9278 30.336 79.5558 30.336C78.1931 30.336 77.0311 30.0887 76.0698 29.594C75.1084 29.0993 74.3758 28.3993 73.8718 27.494C73.3678 26.5793 73.1158 25.506 73.1158 24.274V18.506H77.3018V23.826ZM97.5276 30V28.138C97.4436 28.3247 97.2289 28.5953 96.8836 28.95C96.5476 29.3047 96.0996 29.6267 95.5396 29.916C94.9796 30.196 94.3263 30.336 93.5796 30.336C92.4596 30.336 91.4796 30.0653 90.6396 29.524C89.7996 28.9733 89.1463 28.2407 88.6796 27.326C88.2129 26.402 87.9796 25.38 87.9796 24.26C87.9796 23.14 88.2129 22.1227 88.6796 21.208C89.1463 20.284 89.7996 19.5467 90.6396 18.996C91.4796 18.4453 92.4596 18.17 93.5796 18.17C94.2983 18.17 94.9283 18.2867 95.4696 18.52C96.0109 18.744 96.4496 19.0147 96.7856 19.332C97.1216 19.64 97.3549 19.9247 97.4856 20.186V18.506H101.714V30H97.5276ZM92.1516 24.26C92.1516 24.7827 92.2729 25.254 92.5156 25.674C92.7583 26.0847 93.0803 26.4067 93.4816 26.64C93.8923 26.8733 94.3449 26.99 94.8396 26.99C95.3529 26.99 95.8056 26.8733 96.1976 26.64C96.5896 26.4067 96.8976 26.0847 97.1216 25.674C97.3549 25.254 97.4716 24.7827 97.4716 24.26C97.4716 23.7373 97.3549 23.2707 97.1216 22.86C96.8976 22.44 96.5896 22.1133 96.1976 21.88C95.8056 21.6373 95.3529 21.516 94.8396 21.516C94.3449 21.516 93.8923 21.6373 93.4816 21.88C93.0803 22.1133 92.7583 22.44 92.5156 22.86C92.2729 23.2707 92.1516 23.7373 92.1516 24.26ZM108.306 30H104.05V18.506H108.306V20.284H108.236C108.311 20.0693 108.493 19.7987 108.782 19.472C109.072 19.136 109.478 18.8373 110 18.576C110.523 18.3053 111.162 18.17 111.918 18.17C112.45 18.17 112.94 18.254 113.388 18.422C113.836 18.5807 114.163 18.7347 114.368 18.884L112.716 22.342C112.586 22.1833 112.352 22.02 112.016 21.852C111.69 21.6747 111.279 21.586 110.784 21.586C110.215 21.586 109.744 21.7307 109.37 22.02C109.006 22.3093 108.736 22.6593 108.558 23.07C108.39 23.4807 108.306 23.868 108.306 24.232V30ZM133.594 11.52H137.78V22.874C137.78 24.3953 137.481 25.716 136.884 26.836C136.287 27.9467 135.433 28.81 134.322 29.426C133.211 30.0327 131.886 30.336 130.346 30.336C128.797 30.336 127.462 30.0327 126.342 29.426C125.222 28.81 124.363 27.9467 123.766 26.836C123.178 25.716 122.884 24.3953 122.884 22.874V11.52H127.056V22.65C127.056 23.49 127.187 24.1993 127.448 24.778C127.719 25.3567 128.101 25.7953 128.596 26.094C129.091 26.3833 129.674 26.528 130.346 26.528C131.009 26.528 131.583 26.3833 132.068 26.094C132.553 25.7953 132.927 25.3567 133.188 24.778C133.459 24.1993 133.594 23.49 133.594 22.65V11.52ZM148.664 18.17C149.467 18.17 150.251 18.3333 151.016 18.66C151.781 18.9867 152.411 19.5047 152.906 20.214C153.401 20.914 153.648 21.838 153.648 22.986V30H149.378V23.686C149.378 22.8647 149.182 22.2487 148.79 21.838C148.398 21.418 147.885 21.208 147.25 21.208C146.83 21.208 146.433 21.32 146.06 21.544C145.696 21.7587 145.397 22.0667 145.164 22.468C144.94 22.86 144.828 23.3127 144.828 23.826V30H140.572V18.506H144.828V20.2C144.94 19.892 145.173 19.584 145.528 19.276C145.892 18.9587 146.345 18.6973 146.886 18.492C147.437 18.2773 148.029 18.17 148.664 18.17ZM156.261 30V18.506H160.517V30H156.261ZM158.445 16.14C157.773 16.14 157.204 15.9067 156.737 15.44C156.271 14.964 156.037 14.3993 156.037 13.746C156.037 13.0927 156.271 12.528 156.737 12.052C157.213 11.5667 157.783 11.324 158.445 11.324C158.884 11.324 159.285 11.436 159.649 11.66C160.013 11.8747 160.307 12.164 160.531 12.528C160.755 12.892 160.867 13.298 160.867 13.746C160.867 14.3993 160.629 14.964 160.153 15.44C159.677 15.9067 159.108 16.14 158.445 16.14ZM162.469 18.506H164.429V13.788H168.643V18.506H171.219V22.006H168.643V25.212C168.643 25.688 168.713 26.0753 168.853 26.374C168.993 26.6633 169.25 26.808 169.623 26.808C169.875 26.808 170.09 26.752 170.267 26.64C170.445 26.528 170.552 26.4533 170.589 26.416L172.045 29.44C171.98 29.496 171.775 29.5987 171.429 29.748C171.093 29.8973 170.664 30.0327 170.141 30.154C169.619 30.2753 169.035 30.336 168.391 30.336C167.243 30.336 166.296 30.014 165.549 29.37C164.803 28.7167 164.429 27.7133 164.429 26.36V22.006H162.469V18.506ZM177.009 25.156C177.037 25.5667 177.168 25.9307 177.401 26.248C177.635 26.5653 177.957 26.8173 178.367 27.004C178.787 27.1813 179.282 27.27 179.851 27.27C180.393 27.27 180.878 27.214 181.307 27.102C181.746 26.99 182.124 26.85 182.441 26.682C182.768 26.514 183.02 26.3413 183.197 26.164L184.849 28.796C184.616 29.048 184.285 29.2953 183.855 29.538C183.435 29.7713 182.88 29.9627 182.189 30.112C181.499 30.2613 180.626 30.336 179.571 30.336C178.302 30.336 177.173 30.098 176.183 29.622C175.194 29.146 174.415 28.446 173.845 27.522C173.276 26.598 172.991 25.4687 172.991 24.134C172.991 23.014 173.234 22.006 173.719 21.11C174.214 20.2047 174.928 19.4907 175.861 18.968C176.795 18.436 177.919 18.17 179.235 18.17C180.486 18.17 181.569 18.3987 182.483 18.856C183.407 19.3133 184.117 19.9947 184.611 20.9C185.115 21.796 185.367 22.916 185.367 24.26C185.367 24.3347 185.363 24.484 185.353 24.708C185.353 24.932 185.344 25.0813 185.325 25.156H177.009ZM181.363 22.93C181.354 22.6313 181.275 22.3373 181.125 22.048C180.976 21.7493 180.752 21.5067 180.453 21.32C180.155 21.124 179.772 21.026 179.305 21.026C178.839 21.026 178.442 21.1193 178.115 21.306C177.798 21.4833 177.555 21.7167 177.387 22.006C177.219 22.2953 177.126 22.6033 177.107 22.93H181.363ZM192.495 30.336C191.384 30.336 190.418 30.0653 189.597 29.524C188.775 28.9733 188.136 28.2407 187.679 27.326C187.231 26.402 187.007 25.38 187.007 24.26C187.007 23.14 187.231 22.1227 187.679 21.208C188.136 20.284 188.775 19.5467 189.597 18.996C190.418 18.4453 191.384 18.17 192.495 18.17C193.232 18.17 193.885 18.2867 194.455 18.52C195.024 18.744 195.486 19.0147 195.841 19.332C196.195 19.64 196.41 19.9247 196.485 20.186V10.736H200.741V30H196.527V28.138C196.349 28.4833 196.06 28.8287 195.659 29.174C195.257 29.51 194.786 29.7853 194.245 30C193.703 30.224 193.12 30.336 192.495 30.336ZM193.797 26.99C194.31 26.99 194.767 26.8733 195.169 26.64C195.579 26.4067 195.901 26.0847 196.135 25.674C196.368 25.254 196.485 24.7827 196.485 24.26C196.485 23.7373 196.368 23.2707 196.135 22.86C195.901 22.44 195.579 22.1133 195.169 21.88C194.767 21.6373 194.31 21.516 193.797 21.516C193.302 21.516 192.854 21.6373 192.453 21.88C192.061 22.1133 191.748 22.44 191.515 22.86C191.291 23.2707 191.179 23.7373 191.179 24.26C191.179 24.7827 191.291 25.254 191.515 25.674C191.748 26.0847 192.061 26.4067 192.453 26.64C192.854 26.8733 193.302 26.99 193.797 26.99ZM9.316 37.52H13.502V56H9.316V37.52ZM24.6602 44.17C25.4629 44.17 26.2469 44.3333 27.0122 44.66C27.7776 44.9867 28.4076 45.5047 28.9022 46.214C29.3969 46.914 29.6442 47.838 29.6442 48.986V56H25.3742V49.686C25.3742 48.8647 25.1782 48.2487 24.7862 47.838C24.3942 47.418 23.8809 47.208 23.2462 47.208C22.8262 47.208 22.4296 47.32 22.0562 47.544C21.6922 47.7587 21.3936 48.0667 21.1602 48.468C20.9362 48.86 20.8242 49.3127 20.8242 49.826V56H16.5682V44.506H20.8242V46.2C20.9362 45.892 21.1696 45.584 21.5242 45.276C21.8882 44.9587 22.3409 44.6973 22.8822 44.492C23.4329 44.2773 24.0256 44.17 24.6602 44.17ZM31.0814 44.506H35.6314L38.4034 52.136L41.1894 44.506H45.7114L40.8954 56H35.9114L31.0814 44.506ZM50.8179 51.156C50.8459 51.5667 50.9766 51.9307 51.2099 52.248C51.4432 52.5653 51.7652 52.8173 52.1759 53.004C52.5959 53.1813 53.0906 53.27 53.6599 53.27C54.2012 53.27 54.6866 53.214 55.1159 53.102C55.5546 52.99 55.9326 52.85 56.2499 52.682C56.5766 52.514 56.8286 52.3413 57.0059 52.164L58.6579 54.796C58.4246 55.048 58.0932 55.2953 57.6639 55.538C57.2439 55.7713 56.6886 55.9627 55.9979 56.112C55.3072 56.2613 54.4346 56.336 53.3799 56.336C52.1106 56.336 50.9812 56.098 49.9919 55.622C49.0026 55.146 48.2232 54.446 47.6539 53.522C47.0846 52.598 46.7999 51.4687 46.7999 50.134C46.7999 49.014 47.0426 48.006 47.5279 47.11C48.0226 46.2047 48.7366 45.4907 49.6699 44.968C50.6032 44.436 51.7279 44.17 53.0439 44.17C54.2946 44.17 55.3772 44.3987 56.2919 44.856C57.2159 45.3133 57.9252 45.9947 58.4199 46.9C58.9239 47.796 59.1759 48.916 59.1759 50.26C59.1759 50.3347 59.1712 50.484 59.1619 50.708C59.1619 50.932 59.1526 51.0813 59.1339 51.156H50.8179ZM55.1719 48.93C55.1626 48.6313 55.0832 48.3373 54.9339 48.048C54.7846 47.7493 54.5606 47.5067 54.2619 47.32C53.9632 47.124 53.5806 47.026 53.1139 47.026C52.6472 47.026 52.2506 47.1193 51.9239 47.306C51.6066 47.4833 51.3639 47.7167 51.1959 48.006C51.0279 48.2953 50.9346 48.6033 50.9159 48.93H55.1719ZM66.5272 44.17C67.2832 44.17 67.9739 44.2353 68.5992 44.366C69.2246 44.4873 69.7472 44.6273 70.1672 44.786C70.5966 44.9447 70.8719 45.0753 70.9932 45.178L69.6072 47.684C69.4299 47.5533 69.0986 47.3853 68.6132 47.18C68.1372 46.9747 67.6052 46.872 67.0172 46.872C66.5692 46.872 66.1912 46.942 65.8832 47.082C65.5752 47.2127 65.4212 47.4227 65.4212 47.712C65.4212 48.0013 65.5892 48.2347 65.9252 48.412C66.2706 48.58 66.7652 48.7293 67.4092 48.86C67.9692 48.972 68.5386 49.1493 69.1172 49.392C69.6959 49.6347 70.1766 49.994 70.5592 50.47C70.9512 50.9367 71.1472 51.562 71.1472 52.346C71.1472 53.1487 70.9746 53.8113 70.6292 54.334C70.2839 54.8567 69.8266 55.2627 69.2572 55.552C68.6879 55.8413 68.0719 56.042 67.4092 56.154C66.7466 56.2753 66.1026 56.336 65.4772 56.336C64.5999 56.336 63.8346 56.2567 63.1812 56.098C62.5372 55.9393 62.0146 55.7573 61.6132 55.552C61.2119 55.3467 60.9319 55.1833 60.7732 55.062L62.1452 52.262C62.3879 52.4673 62.7846 52.7007 63.3352 52.962C63.8859 53.214 64.4692 53.34 65.0852 53.34C65.6826 53.34 66.1446 53.2513 66.4712 53.074C66.7979 52.8967 66.9612 52.6633 66.9612 52.374C66.9612 52.1407 66.8819 51.954 66.7232 51.814C66.5646 51.674 66.3406 51.5527 66.0512 51.45C65.7619 51.3473 65.4119 51.254 65.0012 51.17C64.6279 51.0953 64.2312 50.9787 63.8112 50.82C63.3912 50.6613 62.9946 50.4467 62.6212 50.176C62.2479 49.896 61.9446 49.546 61.7112 49.126C61.4779 48.706 61.3612 48.1973 61.3612 47.6C61.3612 46.8347 61.6086 46.2 62.1032 45.696C62.5979 45.192 63.2372 44.814 64.0212 44.562C64.8052 44.3007 65.6406 44.17 66.5272 44.17ZM72.2351 44.506H74.1951V39.788H78.4091V44.506H80.9851V48.006H78.4091V51.212C78.4091 51.688 78.4791 52.0753 78.6191 52.374C78.7591 52.6633 79.0157 52.808 79.3891 52.808C79.6411 52.808 79.8557 52.752 80.0331 52.64C80.2104 52.528 80.3177 52.4533 80.3551 52.416L81.8111 55.44C81.7457 55.496 81.5404 55.5987 81.1951 55.748C80.8591 55.8973 80.4297 56.0327 79.9071 56.154C79.3844 56.2753 78.8011 56.336 78.1571 56.336C77.0091 56.336 76.0617 56.014 75.3151 55.37C74.5684 54.7167 74.1951 53.7133 74.1951 52.36V48.006H72.2351V44.506ZM99.1929 44.17C100.061 44.17 100.826 44.352 101.489 44.716C102.152 45.0707 102.67 45.6213 103.043 46.368C103.426 47.1147 103.617 48.076 103.617 49.252V56H99.4309V49.896C99.4309 49.0933 99.3096 48.4447 99.0669 47.95C98.8243 47.4553 98.3436 47.208 97.6249 47.208C97.1956 47.208 96.8176 47.32 96.4909 47.544C96.1643 47.768 95.9123 48.0807 95.7349 48.482C95.5576 48.874 95.4689 49.3453 95.4689 49.896V56H91.5629V49.896C91.5629 49.0933 91.4276 48.4447 91.1569 47.95C90.8956 47.4553 90.4289 47.208 89.7569 47.208C89.3276 47.208 88.9496 47.32 88.6229 47.544C88.2963 47.7587 88.0443 48.0667 87.8669 48.468C87.6989 48.86 87.6149 49.336 87.6149 49.896V56H83.3869V44.506H87.6149V46.144C87.7269 45.8547 87.9696 45.5607 88.3429 45.262C88.7256 44.954 89.1969 44.6973 89.7569 44.492C90.3169 44.2773 90.9096 44.17 91.5349 44.17C92.2163 44.17 92.7856 44.2727 93.2429 44.478C93.7003 44.674 94.0736 44.94 94.3629 45.276C94.6616 45.612 94.8996 45.976 95.0769 46.368C95.2076 46.032 95.4643 45.696 95.8469 45.36C96.2389 45.0147 96.7243 44.73 97.3029 44.506C97.8909 44.282 98.5209 44.17 99.1929 44.17ZM109.47 51.156C109.498 51.5667 109.629 51.9307 109.862 52.248C110.096 52.5653 110.418 52.8173 110.828 53.004C111.248 53.1813 111.743 53.27 112.312 53.27C112.854 53.27 113.339 53.214 113.768 53.102C114.207 52.99 114.585 52.85 114.902 52.682C115.229 52.514 115.481 52.3413 115.658 52.164L117.31 54.796C117.077 55.048 116.746 55.2953 116.316 55.538C115.896 55.7713 115.341 55.9627 114.65 56.112C113.96 56.2613 113.087 56.336 112.032 56.336C110.763 56.336 109.634 56.098 108.644 55.622C107.655 55.146 106.876 54.446 106.306 53.522C105.737 52.598 105.452 51.4687 105.452 50.134C105.452 49.014 105.695 48.006 106.18 47.11C106.675 46.2047 107.389 45.4907 108.322 44.968C109.256 44.436 110.38 44.17 111.696 44.17C112.947 44.17 114.03 44.3987 114.944 44.856C115.868 45.3133 116.578 45.9947 117.072 46.9C117.576 47.796 117.828 48.916 117.828 50.26C117.828 50.3347 117.824 50.484 117.814 50.708C117.814 50.932 117.805 51.0813 117.786 51.156H109.47ZM113.824 48.93C113.815 48.6313 113.736 48.3373 113.586 48.048C113.437 47.7493 113.213 47.5067 112.914 47.32C112.616 47.124 112.233 47.026 111.766 47.026C111.3 47.026 110.903 47.1193 110.576 47.306C110.259 47.4833 110.016 47.7167 109.848 48.006C109.68 48.2953 109.587 48.6033 109.568 48.93H113.824ZM127.938 44.17C128.74 44.17 129.524 44.3333 130.29 44.66C131.055 44.9867 131.685 45.5047 132.18 46.214C132.674 46.914 132.922 47.838 132.922 48.986V56H128.652V49.686C128.652 48.8647 128.456 48.2487 128.064 47.838C127.672 47.418 127.158 47.208 126.524 47.208C126.104 47.208 125.707 47.32 125.334 47.544C124.97 47.7587 124.671 48.0667 124.438 48.468C124.214 48.86 124.102 49.3127 124.102 49.826V56H119.846V44.506H124.102V46.2C124.214 45.892 124.447 45.584 124.802 45.276C125.166 44.9587 125.618 44.6973 126.16 44.492C126.71 44.2773 127.303 44.17 127.938 44.17ZM134.415 44.506H136.375V39.788H140.589V44.506H143.165V48.006H140.589V51.212C140.589 51.688 140.659 52.0753 140.799 52.374C140.939 52.6633 141.195 52.808 141.569 52.808C141.821 52.808 142.035 52.752 142.213 52.64C142.39 52.528 142.497 52.4533 142.535 52.416L143.991 55.44C143.925 55.496 143.72 55.5987 143.375 55.748C143.039 55.8973 142.609 56.0327 142.087 56.154C141.564 56.2753 140.981 56.336 140.337 56.336C139.189 56.336 138.241 56.014 137.495 55.37C136.748 54.7167 136.375 53.7133 136.375 52.36V48.006H134.415V44.506ZM162.749 52.192C163.607 52.192 164.387 52.066 165.087 51.814C165.796 51.562 166.323 51.3147 166.669 51.072L168.461 54.628C168.022 55.0013 167.271 55.3793 166.207 55.762C165.152 56.1447 163.897 56.336 162.441 56.336C161.078 56.336 159.799 56.098 158.605 55.622C157.41 55.146 156.355 54.4787 155.441 53.62C154.535 52.752 153.821 51.7393 153.299 50.582C152.785 49.4153 152.529 48.1507 152.529 46.788C152.529 45.4253 152.785 44.1607 153.299 42.994C153.812 41.818 154.521 40.796 155.427 39.928C156.341 39.06 157.396 38.388 158.591 37.912C159.795 37.4267 161.078 37.184 162.441 37.184C163.897 37.184 165.152 37.3753 166.207 37.758C167.271 38.1407 168.022 38.5187 168.461 38.892L166.669 42.448C166.323 42.196 165.796 41.9487 165.087 41.706C164.387 41.454 163.607 41.328 162.749 41.328C161.797 41.328 160.966 41.4773 160.257 41.776C159.547 42.0653 158.955 42.4667 158.479 42.98C158.003 43.4933 157.648 44.072 157.415 44.716C157.181 45.36 157.065 46.0367 157.065 46.746C157.065 47.4647 157.181 48.1507 157.415 48.804C157.648 49.448 158.003 50.0267 158.479 50.54C158.955 51.0533 159.547 51.4593 160.257 51.758C160.966 52.0473 161.797 52.192 162.749 52.192ZM176.876 56.336C175.616 56.336 174.496 56.0793 173.516 55.566C172.545 55.0433 171.78 54.3293 171.22 53.424C170.669 52.5093 170.394 51.464 170.394 50.288C170.394 49.112 170.669 48.0667 171.22 47.152C171.78 46.228 172.545 45.5 173.516 44.968C174.496 44.436 175.616 44.17 176.876 44.17C178.136 44.17 179.246 44.436 180.208 44.968C181.169 45.5 181.92 46.228 182.462 47.152C183.003 48.0667 183.274 49.112 183.274 50.288C183.274 51.464 183.003 52.5093 182.462 53.424C181.92 54.3293 181.169 55.0433 180.208 55.566C179.246 56.0793 178.136 56.336 176.876 56.336ZM176.876 52.836C177.361 52.836 177.781 52.7287 178.136 52.514C178.49 52.2993 178.766 51.996 178.962 51.604C179.158 51.212 179.256 50.7687 179.256 50.274C179.256 49.77 179.158 49.322 178.962 48.93C178.766 48.538 178.49 48.23 178.136 48.006C177.781 47.782 177.361 47.67 176.876 47.67C176.39 47.67 175.966 47.782 175.602 48.006C175.247 48.23 174.967 48.538 174.762 48.93C174.566 49.322 174.468 49.77 174.468 50.274C174.468 50.7687 174.566 51.212 174.762 51.604C174.967 51.996 175.247 52.2993 175.602 52.514C175.966 52.7287 176.39 52.836 176.876 52.836ZM193.399 44.17C194.201 44.17 194.985 44.3333 195.751 44.66C196.516 44.9867 197.146 45.5047 197.641 46.214C198.135 46.914 198.382 47.838 198.382 48.986V56H194.113V49.686C194.113 48.8647 193.917 48.2487 193.525 47.838C193.133 47.418 192.619 47.208 191.985 47.208C191.565 47.208 191.168 47.32 190.795 47.544C190.431 47.7587 190.132 48.0667 189.899 48.468C189.675 48.86 189.563 49.3127 189.563 49.826V56H185.307V44.506H189.563V46.2C189.675 45.892 189.908 45.584 190.263 45.276C190.627 44.9587 191.079 44.6973 191.621 44.492C192.171 44.2773 192.764 44.17 193.399 44.17ZM206.008 44.17C206.764 44.17 207.454 44.2353 208.08 44.366C208.705 44.4873 209.228 44.6273 209.648 44.786C210.077 44.9447 210.352 45.0753 210.474 45.178L209.088 47.684C208.91 47.5533 208.579 47.3853 208.094 47.18C207.618 46.9747 207.086 46.872 206.498 46.872C206.05 46.872 205.672 46.942 205.364 47.082C205.056 47.2127 204.902 47.4227 204.902 47.712C204.902 48.0013 205.07 48.2347 205.406 48.412C205.751 48.58 206.246 48.7293 206.89 48.86C207.45 48.972 208.019 49.1493 208.598 49.392C209.176 49.6347 209.657 49.994 210.04 50.47C210.432 50.9367 210.628 51.562 210.628 52.346C210.628 53.1487 210.455 53.8113 210.11 54.334C209.764 54.8567 209.307 55.2627 208.738 55.552C208.168 55.8413 207.552 56.042 206.89 56.154C206.227 56.2753 205.583 56.336 204.958 56.336C204.08 56.336 203.315 56.2567 202.662 56.098C202.018 55.9393 201.495 55.7573 201.094 55.552C200.692 55.3467 200.412 55.1833 200.254 55.062L201.626 52.262C201.868 52.4673 202.265 52.7007 202.816 52.962C203.366 53.214 203.95 53.34 204.566 53.34C205.163 53.34 205.625 53.2513 205.952 53.074C206.278 52.8967 206.442 52.6633 206.442 52.374C206.442 52.1407 206.362 51.954 206.204 51.814C206.045 51.674 205.821 51.5527 205.532 51.45C205.242 51.3473 204.892 51.254 204.482 51.17C204.108 51.0953 203.712 50.9787 203.292 50.82C202.872 50.6613 202.475 50.4467 202.102 50.176C201.728 49.896 201.425 49.546 201.192 49.126C200.958 48.706 200.842 48.1973 200.842 47.6C200.842 46.8347 201.089 46.2 201.584 45.696C202.078 45.192 202.718 44.814 203.502 44.562C204.286 44.3007 205.121 44.17 206.008 44.17ZM216.919 49.826C216.919 50.7407 217.092 51.4733 217.437 52.024C217.782 52.5653 218.361 52.836 219.173 52.836C220.004 52.836 220.587 52.5653 220.923 52.024C221.268 51.4733 221.441 50.7407 221.441 49.826V44.506H225.641V50.274C225.641 51.506 225.384 52.5793 224.871 53.494C224.367 54.3993 223.634 55.0993 222.673 55.594C221.712 56.0887 220.545 56.336 219.173 56.336C217.81 56.336 216.648 56.0887 215.687 55.594C214.726 55.0993 213.993 54.3993 213.489 53.494C212.985 52.5793 212.733 51.506 212.733 50.274V44.506H216.919V49.826ZM232.483 56H228.213V36.736H232.483V56ZM234.247 44.506H236.207V39.788H240.421V44.506H242.997V48.006H240.421V51.212C240.421 51.688 240.491 52.0753 240.631 52.374C240.771 52.6633 241.027 52.808 241.401 52.808C241.653 52.808 241.867 52.752 242.045 52.64C242.222 52.528 242.329 52.4533 242.367 52.416L243.823 55.44C243.757 55.496 243.552 55.5987 243.207 55.748C242.871 55.8973 242.441 56.0327 241.919 56.154C241.396 56.2753 240.813 56.336 240.169 56.336C239.021 56.336 238.073 56.014 237.327 55.37C236.58 54.7167 236.207 53.7133 236.207 52.36V48.006H234.247V44.506ZM245.539 56V44.506H249.795V56H245.539ZM247.723 42.14C247.051 42.14 246.481 41.9067 246.015 41.44C245.548 40.964 245.315 40.3993 245.315 39.746C245.315 39.0927 245.548 38.528 246.015 38.052C246.491 37.5667 247.06 37.324 247.723 37.324C248.161 37.324 248.563 37.436 248.927 37.66C249.291 37.8747 249.585 38.164 249.809 38.528C250.033 38.892 250.145 39.298 250.145 39.746C250.145 40.3993 249.907 40.964 249.431 41.44C248.955 41.9067 248.385 42.14 247.723 42.14ZM260.637 44.17C261.439 44.17 262.223 44.3333 262.989 44.66C263.754 44.9867 264.384 45.5047 264.879 46.214C265.373 46.914 265.621 47.838 265.621 48.986V56H261.351V49.686C261.351 48.8647 261.155 48.2487 260.763 47.838C260.371 47.418 259.857 47.208 259.223 47.208C258.803 47.208 258.406 47.32 258.033 47.544C257.669 47.7587 257.37 48.0667 257.137 48.468C256.913 48.86 256.801 49.3127 256.801 49.826V56H252.545V44.506H256.801V46.2C256.913 45.892 257.146 45.584 257.501 45.276C257.865 44.9587 258.317 44.6973 258.859 44.492C259.409 44.2773 260.002 44.17 260.637 44.17ZM274.128 62.146C273.325 62.146 272.527 62.076 271.734 61.936C270.95 61.796 270.217 61.558 269.536 61.222C268.855 60.886 268.281 60.424 267.814 59.836L270.306 57.246C270.521 57.498 270.782 57.7453 271.09 57.988C271.407 58.2307 271.795 58.4313 272.252 58.59C272.719 58.7487 273.283 58.828 273.946 58.828C274.562 58.828 275.099 58.7207 275.556 58.506C276.013 58.2913 276.368 57.9787 276.62 57.568C276.881 57.1573 277.012 56.658 277.012 56.07V55.79H281.198V56.322C281.198 57.5913 280.881 58.66 280.246 59.528C279.621 60.396 278.776 61.0493 277.712 61.488C276.648 61.9267 275.453 62.146 274.128 62.146ZM277.012 56V54.138C276.928 54.3247 276.713 54.5953 276.368 54.95C276.032 55.3047 275.584 55.6267 275.024 55.916C274.464 56.196 273.811 56.336 273.064 56.336C271.944 56.336 270.964 56.0653 270.124 55.524C269.284 54.9733 268.631 54.2407 268.164 53.326C267.697 52.402 267.464 51.38 267.464 50.26C267.464 49.14 267.697 48.1227 268.164 47.208C268.631 46.284 269.284 45.5467 270.124 44.996C270.964 44.4453 271.944 44.17 273.064 44.17C273.783 44.17 274.413 44.2867 274.954 44.52C275.495 44.744 275.934 45.0147 276.27 45.332C276.606 45.64 276.839 45.9247 276.97 46.186V44.506H281.198V56H277.012ZM271.636 50.26C271.636 50.7827 271.757 51.254 272 51.674C272.243 52.0847 272.565 52.4067 272.966 52.64C273.377 52.8733 273.829 52.99 274.324 52.99C274.837 52.99 275.29 52.8733 275.682 52.64C276.074 52.4067 276.382 52.0847 276.606 51.674C276.839 51.254 276.956 50.7827 276.956 50.26C276.956 49.7373 276.839 49.2707 276.606 48.86C276.382 48.44 276.074 48.1133 275.682 47.88C275.29 47.6373 274.837 47.516 274.324 47.516C273.829 47.516 273.377 47.6373 272.966 47.88C272.565 48.1133 272.243 48.44 272 48.86C271.757 49.2707 271.636 49.7373 271.636 50.26ZM286.782 56.336C286.091 56.336 285.494 56.0887 284.99 55.594C284.495 55.09 284.248 54.4927 284.248 53.802C284.248 53.0927 284.495 52.4907 284.99 51.996C285.494 51.492 286.091 51.24 286.782 51.24C287.491 51.24 288.093 51.492 288.588 51.996C289.083 52.4907 289.33 53.0927 289.33 53.802C289.33 54.4927 289.083 55.09 288.588 55.594C288.093 56.0887 287.491 56.336 286.782 56.336Z" fill="#043576"/>
</svg>
