<svg width="293" height="79" viewBox="0 0 293 79" fill="none" xmlns="http://www.w3.org/2000/svg">
<path d="M12.225 21H7.155L0.105 1.2H5.16L9.69 15.285L14.22 1.2H19.275L12.225 21ZM29.1255 21V19.005C29.0355 19.205 28.8055 19.495 28.4355 19.875C28.0755 20.255 27.5955 20.6 26.9955 20.91C26.3955 21.21 25.6955 21.36 24.8955 21.36C23.6955 21.36 22.6455 21.07 21.7455 20.49C20.8455 19.9 20.1455 19.115 19.6455 18.135C19.1455 17.145 18.8955 16.05 18.8955 14.85C18.8955 13.65 19.1455 12.56 19.6455 11.58C20.1455 10.59 20.8455 9.8 21.7455 9.21C22.6455 8.62 23.6955 8.325 24.8955 8.325C25.6655 8.325 26.3405 8.45 26.9205 8.7C27.5005 8.94 27.9705 9.23 28.3305 9.57C28.6905 9.9 28.9405 10.205 29.0805 10.485V8.685H33.6105V21H29.1255ZM23.3655 14.85C23.3655 15.41 23.4955 15.915 23.7555 16.365C24.0155 16.805 24.3605 17.15 24.7905 17.4C25.2305 17.65 25.7155 17.775 26.2455 17.775C26.7955 17.775 27.2805 17.65 27.7005 17.4C28.1205 17.15 28.4505 16.805 28.6905 16.365C28.9405 15.915 29.0655 15.41 29.0655 14.85C29.0655 14.29 28.9405 13.79 28.6905 13.35C28.4505 12.9 28.1205 12.55 27.7005 12.3C27.2805 12.04 26.7955 11.91 26.2455 11.91C25.7155 11.91 25.2305 12.04 24.7905 12.3C24.3605 12.55 24.0155 12.9 23.7555 13.35C23.4955 13.79 23.3655 14.29 23.3655 14.85ZM44.9791 8.325C45.8391 8.325 46.6791 8.5 47.4991 8.85C48.3191 9.2 48.9941 9.755 49.5241 10.515C50.0541 11.265 50.3191 12.255 50.3191 13.485V21H45.7441V14.235C45.7441 13.355 45.5341 12.695 45.1141 12.255C44.6941 11.805 44.1441 11.58 43.4641 11.58C43.0141 11.58 42.5891 11.7 42.1891 11.94C41.7991 12.17 41.4791 12.5 41.2291 12.93C40.9891 13.35 40.8691 13.835 40.8691 14.385V21H36.3091V8.685H40.8691V10.5C40.9891 10.17 41.2391 9.84 41.6191 9.51C42.0091 9.17 42.4941 8.89 43.0741 8.67C43.6641 8.44 44.2991 8.325 44.9791 8.325ZM59.434 27.585C58.574 27.585 57.719 27.51 56.869 27.36C56.029 27.21 55.244 26.955 54.514 26.595C53.784 26.235 53.169 25.74 52.669 25.11L55.339 22.335C55.569 22.605 55.849 22.87 56.179 23.13C56.519 23.39 56.934 23.605 57.424 23.775C57.924 23.945 58.529 24.03 59.239 24.03C59.899 24.03 60.474 23.915 60.964 23.685C61.454 23.455 61.834 23.12 62.104 22.68C62.384 22.24 62.524 21.705 62.524 21.075V20.775H67.009V21.345C67.009 22.705 66.669 23.85 65.989 24.78C65.319 25.71 64.414 26.41 63.274 26.88C62.134 27.35 60.854 27.585 59.434 27.585ZM62.524 21V19.005C62.434 19.205 62.204 19.495 61.834 19.875C61.474 20.255 60.994 20.6 60.394 20.91C59.794 21.21 59.094 21.36 58.294 21.36C57.094 21.36 56.044 21.07 55.144 20.49C54.244 19.9 53.544 19.115 53.044 18.135C52.544 17.145 52.294 16.05 52.294 14.85C52.294 13.65 52.544 12.56 53.044 11.58C53.544 10.59 54.244 9.8 55.144 9.21C56.044 8.62 57.094 8.325 58.294 8.325C59.064 8.325 59.739 8.45 60.319 8.7C60.899 8.94 61.369 9.23 61.729 9.57C62.089 9.9 62.339 10.205 62.479 10.485V8.685H67.009V21H62.524ZM56.764 14.85C56.764 15.41 56.894 15.915 57.154 16.365C57.414 16.805 57.759 17.15 58.189 17.4C58.629 17.65 59.114 17.775 59.644 17.775C60.194 17.775 60.679 17.65 61.099 17.4C61.519 17.15 61.849 16.805 62.089 16.365C62.339 15.915 62.464 15.41 62.464 14.85C62.464 14.29 62.339 13.79 62.089 13.35C61.849 12.9 61.519 12.55 61.099 12.3C60.679 12.04 60.194 11.91 59.644 11.91C59.114 11.91 58.629 12.04 58.189 12.3C57.759 12.55 57.414 12.9 57.154 13.35C56.894 13.79 56.764 14.29 56.764 14.85ZM74.2519 14.385C74.2519 15.365 74.4369 16.15 74.8069 16.74C75.1769 17.32 75.7969 17.61 76.6669 17.61C77.5569 17.61 78.1819 17.32 78.5419 16.74C78.9119 16.15 79.0969 15.365 79.0969 14.385V8.685H83.5969V14.865C83.5969 16.185 83.3219 17.335 82.7719 18.315C82.2319 19.285 81.4469 20.035 80.4169 20.565C79.3869 21.095 78.1369 21.36 76.6669 21.36C75.2069 21.36 73.9619 21.095 72.9319 20.565C71.9019 20.035 71.1169 19.285 70.5769 18.315C70.0369 17.335 69.7669 16.185 69.7669 14.865V8.685H74.2519V14.385ZM95.9224 21V19.005C95.8324 19.205 95.6024 19.495 95.2324 19.875C94.8724 20.255 94.3924 20.6 93.7924 20.91C93.1924 21.21 92.4924 21.36 91.6924 21.36C90.4924 21.36 89.4424 21.07 88.5424 20.49C87.6424 19.9 86.9424 19.115 86.4424 18.135C85.9424 17.145 85.6924 16.05 85.6924 14.85C85.6924 13.65 85.9424 12.56 86.4424 11.58C86.9424 10.59 87.6424 9.8 88.5424 9.21C89.4424 8.62 90.4924 8.325 91.6924 8.325C92.4624 8.325 93.1374 8.45 93.7174 8.7C94.2974 8.94 94.7674 9.23 95.1274 9.57C95.4874 9.9 95.7374 10.205 95.8774 10.485V8.685H100.407V21H95.9224ZM90.1624 14.85C90.1624 15.41 90.2924 15.915 90.5524 16.365C90.8124 16.805 91.1574 17.15 91.5874 17.4C92.0274 17.65 92.5124 17.775 93.0424 17.775C93.5924 17.775 94.0774 17.65 94.4974 17.4C94.9174 17.15 95.2474 16.805 95.4874 16.365C95.7374 15.915 95.8624 15.41 95.8624 14.85C95.8624 14.29 95.7374 13.79 95.4874 13.35C95.2474 12.9 94.9174 12.55 94.4974 12.3C94.0774 12.04 93.5924 11.91 93.0424 11.91C92.5124 11.91 92.0274 12.04 91.5874 12.3C91.1574 12.55 90.8124 12.9 90.5524 13.35C90.2924 13.79 90.1624 14.29 90.1624 14.85ZM107.471 21H102.911V8.685H107.471V10.59H107.396C107.476 10.36 107.671 10.07 107.981 9.72C108.291 9.36 108.726 9.04 109.286 8.76C109.846 8.47 110.531 8.325 111.341 8.325C111.911 8.325 112.436 8.415 112.916 8.595C113.396 8.765 113.746 8.93 113.966 9.09L112.196 12.795C112.056 12.625 111.806 12.45 111.446 12.27C111.096 12.08 110.656 11.985 110.126 11.985C109.516 11.985 109.011 12.14 108.611 12.45C108.221 12.76 107.931 13.135 107.741 13.575C107.561 14.015 107.471 14.43 107.471 14.82V21ZM120.153 21.36C118.963 21.36 117.928 21.07 117.048 20.49C116.168 19.9 115.483 19.115 114.993 18.135C114.513 17.145 114.273 16.05 114.273 14.85C114.273 13.65 114.513 12.56 114.993 11.58C115.483 10.59 116.168 9.8 117.048 9.21C117.928 8.62 118.963 8.325 120.153 8.325C120.943 8.325 121.643 8.45 122.253 8.7C122.863 8.94 123.358 9.23 123.738 9.57C124.118 9.9 124.348 10.205 124.428 10.485V0.359999H128.988V21H124.473V19.005C124.283 19.375 123.973 19.745 123.543 20.115C123.113 20.475 122.608 20.77 122.028 21C121.448 21.24 120.823 21.36 120.153 21.36ZM121.548 17.775C122.098 17.775 122.588 17.65 123.018 17.4C123.458 17.15 123.803 16.805 124.053 16.365C124.303 15.915 124.428 15.41 124.428 14.85C124.428 14.29 124.303 13.79 124.053 13.35C123.803 12.9 123.458 12.55 123.018 12.3C122.588 12.04 122.098 11.91 121.548 11.91C121.018 11.91 120.538 12.04 120.108 12.3C119.688 12.55 119.353 12.9 119.103 13.35C118.863 13.79 118.743 14.29 118.743 14.85C118.743 15.41 118.863 15.915 119.103 16.365C119.353 16.805 119.688 17.15 120.108 17.4C120.538 17.65 121.018 17.775 121.548 17.775ZM151.001 1.2H155.486V13.365C155.486 14.995 155.166 16.41 154.526 17.61C153.886 18.8 152.971 19.725 151.781 20.385C150.591 21.035 149.171 21.36 147.521 21.36C145.861 21.36 144.431 21.035 143.231 20.385C142.031 19.725 141.111 18.8 140.471 17.61C139.841 16.41 139.526 14.995 139.526 13.365V1.2H143.996V13.125C143.996 14.025 144.136 14.785 144.416 15.405C144.706 16.025 145.116 16.495 145.646 16.815C146.176 17.125 146.801 17.28 147.521 17.28C148.231 17.28 148.846 17.125 149.366 16.815C149.886 16.495 150.286 16.025 150.566 15.405C150.856 14.785 151.001 14.025 151.001 13.125V1.2ZM167.147 8.325C168.007 8.325 168.847 8.5 169.667 8.85C170.487 9.2 171.162 9.755 171.692 10.515C172.222 11.265 172.487 12.255 172.487 13.485V21H167.912V14.235C167.912 13.355 167.702 12.695 167.282 12.255C166.862 11.805 166.312 11.58 165.632 11.58C165.182 11.58 164.757 11.7 164.357 11.94C163.967 12.17 163.647 12.5 163.397 12.93C163.157 13.35 163.037 13.835 163.037 14.385V21H158.477V8.685H163.037V10.5C163.157 10.17 163.407 9.84 163.787 9.51C164.177 9.17 164.662 8.89 165.242 8.67C165.832 8.44 166.467 8.325 167.147 8.325ZM175.287 21V8.685H179.847V21H175.287ZM177.627 6.15C176.907 6.15 176.297 5.9 175.797 5.4C175.297 4.89 175.047 4.285 175.047 3.585C175.047 2.885 175.297 2.28 175.797 1.77C176.307 1.25 176.917 0.989998 177.627 0.989998C178.097 0.989998 178.527 1.11 178.917 1.35C179.307 1.58 179.622 1.89 179.862 2.28C180.102 2.67 180.222 3.105 180.222 3.585C180.222 4.285 179.967 4.89 179.457 5.4C178.947 5.9 178.337 6.15 177.627 6.15ZM181.939 8.685H184.039V3.63H188.554V8.685H191.314V12.435H188.554V15.87C188.554 16.38 188.629 16.795 188.779 17.115C188.929 17.425 189.204 17.58 189.604 17.58C189.874 17.58 190.104 17.52 190.294 17.4C190.484 17.28 190.599 17.2 190.639 17.16L192.199 20.4C192.129 20.46 191.909 20.57 191.539 20.73C191.179 20.89 190.719 21.035 190.159 21.165C189.599 21.295 188.974 21.36 188.284 21.36C187.054 21.36 186.039 21.015 185.239 20.325C184.439 19.625 184.039 18.55 184.039 17.1V12.435H181.939V8.685ZM197.517 15.81C197.547 16.25 197.687 16.64 197.937 16.98C198.187 17.32 198.532 17.59 198.972 17.79C199.422 17.98 199.952 18.075 200.562 18.075C201.142 18.075 201.662 18.015 202.122 17.895C202.592 17.775 202.997 17.625 203.337 17.445C203.687 17.265 203.957 17.08 204.147 16.89L205.917 19.71C205.667 19.98 205.312 20.245 204.852 20.505C204.402 20.755 203.807 20.96 203.067 21.12C202.327 21.28 201.392 21.36 200.262 21.36C198.902 21.36 197.692 21.105 196.632 20.595C195.572 20.085 194.737 19.335 194.127 18.345C193.517 17.355 193.212 16.145 193.212 14.715C193.212 13.515 193.472 12.435 193.992 11.475C194.522 10.505 195.287 9.74 196.287 9.18C197.287 8.61 198.492 8.325 199.902 8.325C201.242 8.325 202.402 8.57 203.382 9.06C204.372 9.55 205.132 10.28 205.662 11.25C206.202 12.21 206.472 13.41 206.472 14.85C206.472 14.93 206.467 15.09 206.457 15.33C206.457 15.57 206.447 15.73 206.427 15.81H197.517ZM202.182 13.425C202.172 13.105 202.087 12.79 201.927 12.48C201.767 12.16 201.527 11.9 201.207 11.7C200.887 11.49 200.477 11.385 199.977 11.385C199.477 11.385 199.052 11.485 198.702 11.685C198.362 11.875 198.102 12.125 197.922 12.435C197.742 12.745 197.642 13.075 197.622 13.425H202.182ZM214.108 21.36C212.918 21.36 211.883 21.07 211.003 20.49C210.123 19.9 209.438 19.115 208.948 18.135C208.468 17.145 208.228 16.05 208.228 14.85C208.228 13.65 208.468 12.56 208.948 11.58C209.438 10.59 210.123 9.8 211.003 9.21C211.883 8.62 212.918 8.325 214.108 8.325C214.898 8.325 215.598 8.45 216.208 8.7C216.818 8.94 217.313 9.23 217.693 9.57C218.073 9.9 218.303 10.205 218.383 10.485V0.359999H222.943V21H218.428V19.005C218.238 19.375 217.928 19.745 217.498 20.115C217.068 20.475 216.563 20.77 215.983 21C215.403 21.24 214.778 21.36 214.108 21.36ZM215.503 17.775C216.053 17.775 216.543 17.65 216.973 17.4C217.413 17.15 217.758 16.805 218.008 16.365C218.258 15.915 218.383 15.41 218.383 14.85C218.383 14.29 218.258 13.79 218.008 13.35C217.758 12.9 217.413 12.55 216.973 12.3C216.543 12.04 216.053 11.91 215.503 11.91C214.973 11.91 214.493 12.04 214.063 12.3C213.643 12.55 213.308 12.9 213.058 13.35C212.818 13.79 212.698 14.29 212.698 14.85C212.698 15.41 212.818 15.915 213.058 16.365C213.308 16.805 213.643 17.15 214.063 17.4C214.493 17.65 214.973 17.775 215.503 17.775ZM1.41 29.2H5.895V49H1.41V29.2ZM17.8502 36.325C18.7102 36.325 19.5502 36.5 20.3702 36.85C21.1902 37.2 21.8652 37.755 22.3952 38.515C22.9252 39.265 23.1902 40.255 23.1902 41.485V49H18.6152V42.235C18.6152 41.355 18.4052 40.695 17.9852 40.255C17.5652 39.805 17.0152 39.58 16.3352 39.58C15.8852 39.58 15.4602 39.7 15.0602 39.94C14.6702 40.17 14.3502 40.5 14.1002 40.93C13.8602 41.35 13.7402 41.835 13.7402 42.385V49H9.18023V36.685H13.7402V38.5C13.8602 38.17 14.1102 37.84 14.4902 37.51C14.8802 37.17 15.3652 36.89 15.9452 36.67C16.5352 36.44 17.1702 36.325 17.8502 36.325ZM24.7301 36.685H29.6051L32.5751 44.86L35.5601 36.685H40.4051L35.2451 49H29.9051L24.7301 36.685ZM45.8763 43.81C45.9063 44.25 46.0463 44.64 46.2963 44.98C46.5463 45.32 46.8913 45.59 47.3313 45.79C47.7813 45.98 48.3113 46.075 48.9213 46.075C49.5013 46.075 50.0213 46.015 50.4813 45.895C50.9513 45.775 51.3563 45.625 51.6963 45.445C52.0463 45.265 52.3163 45.08 52.5063 44.89L54.2763 47.71C54.0263 47.98 53.6713 48.245 53.2113 48.505C52.7613 48.755 52.1663 48.96 51.4263 49.12C50.6863 49.28 49.7513 49.36 48.6213 49.36C47.2613 49.36 46.0513 49.105 44.9913 48.595C43.9313 48.085 43.0963 47.335 42.4863 46.345C41.8763 45.355 41.5713 44.145 41.5713 42.715C41.5713 41.515 41.8313 40.435 42.3513 39.475C42.8813 38.505 43.6463 37.74 44.6463 37.18C45.6463 36.61 46.8513 36.325 48.2613 36.325C49.6013 36.325 50.7613 36.57 51.7413 37.06C52.7313 37.55 53.4913 38.28 54.0213 39.25C54.5613 40.21 54.8313 41.41 54.8313 42.85C54.8313 42.93 54.8263 43.09 54.8163 43.33C54.8163 43.57 54.8063 43.73 54.7863 43.81H45.8763ZM50.5413 41.425C50.5313 41.105 50.4463 40.79 50.2863 40.48C50.1263 40.16 49.8863 39.9 49.5663 39.7C49.2463 39.49 48.8363 39.385 48.3363 39.385C47.8363 39.385 47.4113 39.485 47.0613 39.685C46.7213 39.875 46.4613 40.125 46.2813 40.435C46.1013 40.745 46.0013 41.075 45.9813 41.425H50.5413ZM62.7077 36.325C63.5177 36.325 64.2577 36.395 64.9277 36.535C65.5977 36.665 66.1577 36.815 66.6077 36.985C67.0677 37.155 67.3627 37.295 67.4927 37.405L66.0077 40.09C65.8177 39.95 65.4627 39.77 64.9427 39.55C64.4327 39.33 63.8627 39.22 63.2327 39.22C62.7527 39.22 62.3477 39.295 62.0177 39.445C61.6877 39.585 61.5227 39.81 61.5227 40.12C61.5227 40.43 61.7027 40.68 62.0627 40.87C62.4327 41.05 62.9627 41.21 63.6527 41.35C64.2527 41.47 64.8627 41.66 65.4827 41.92C66.1027 42.18 66.6177 42.565 67.0277 43.075C67.4477 43.575 67.6577 44.245 67.6577 45.085C67.6577 45.945 67.4727 46.655 67.1027 47.215C66.7327 47.775 66.2427 48.21 65.6327 48.52C65.0227 48.83 64.3627 49.045 63.6527 49.165C62.9427 49.295 62.2527 49.36 61.5827 49.36C60.6427 49.36 59.8227 49.275 59.1227 49.105C58.4327 48.935 57.8727 48.74 57.4427 48.52C57.0127 48.3 56.7127 48.125 56.5427 47.995L58.0127 44.995C58.2727 45.215 58.6977 45.465 59.2877 45.745C59.8777 46.015 60.5027 46.15 61.1627 46.15C61.8027 46.15 62.2977 46.055 62.6477 45.865C62.9977 45.675 63.1727 45.425 63.1727 45.115C63.1727 44.865 63.0877 44.665 62.9177 44.515C62.7477 44.365 62.5077 44.235 62.1977 44.125C61.8877 44.015 61.5127 43.915 61.0727 43.825C60.6727 43.745 60.2477 43.62 59.7977 43.45C59.3477 43.28 58.9227 43.05 58.5227 42.76C58.1227 42.46 57.7977 42.085 57.5477 41.635C57.2977 41.185 57.1727 40.64 57.1727 40C57.1727 39.18 57.4377 38.5 57.9677 37.96C58.4977 37.42 59.1827 37.015 60.0227 36.745C60.8627 36.465 61.7577 36.325 62.7077 36.325ZM68.8233 36.685H70.9233V31.63H75.4383V36.685H78.1983V40.435H75.4383V43.87C75.4383 44.38 75.5133 44.795 75.6633 45.115C75.8133 45.425 76.0883 45.58 76.4883 45.58C76.7583 45.58 76.9883 45.52 77.1783 45.4C77.3683 45.28 77.4833 45.2 77.5233 45.16L79.0833 48.4C79.0133 48.46 78.7933 48.57 78.4233 48.73C78.0633 48.89 77.6033 49.035 77.0433 49.165C76.4833 49.295 75.8583 49.36 75.1683 49.36C73.9383 49.36 72.9233 49.015 72.1233 48.325C71.3233 47.625 70.9233 46.55 70.9233 45.1V40.435H68.8233V36.685ZM97.7067 36.325C98.6367 36.325 99.4567 36.52 100.167 36.91C100.877 37.29 101.432 37.88 101.832 38.68C102.242 39.48 102.447 40.51 102.447 41.77V49H97.9617V42.46C97.9617 41.6 97.8317 40.905 97.5717 40.375C97.3117 39.845 96.7967 39.58 96.0267 39.58C95.5667 39.58 95.1617 39.7 94.8117 39.94C94.4617 40.18 94.1917 40.515 94.0017 40.945C93.8117 41.365 93.7167 41.87 93.7167 42.46V49H89.5317V42.46C89.5317 41.6 89.3867 40.905 89.0967 40.375C88.8167 39.845 88.3167 39.58 87.5967 39.58C87.1367 39.58 86.7317 39.7 86.3817 39.94C86.0317 40.17 85.7617 40.5 85.5717 40.93C85.3917 41.35 85.3017 41.86 85.3017 42.46V49H80.7717V36.685H85.3017V38.44C85.4217 38.13 85.6817 37.815 86.0817 37.495C86.4917 37.165 86.9967 36.89 87.5967 36.67C88.1967 36.44 88.8317 36.325 89.5017 36.325C90.2317 36.325 90.8417 36.435 91.3317 36.655C91.8217 36.865 92.2217 37.15 92.5317 37.51C92.8517 37.87 93.1067 38.26 93.2967 38.68C93.4367 38.32 93.7117 37.96 94.1217 37.6C94.5417 37.23 95.0617 36.925 95.6817 36.685C96.3117 36.445 96.9867 36.325 97.7067 36.325ZM108.718 43.81C108.748 44.25 108.888 44.64 109.138 44.98C109.388 45.32 109.733 45.59 110.173 45.79C110.623 45.98 111.153 46.075 111.763 46.075C112.343 46.075 112.863 46.015 113.323 45.895C113.793 45.775 114.198 45.625 114.538 45.445C114.888 45.265 115.158 45.08 115.348 44.89L117.118 47.71C116.868 47.98 116.513 48.245 116.053 48.505C115.603 48.755 115.008 48.96 114.268 49.12C113.528 49.28 112.593 49.36 111.463 49.36C110.103 49.36 108.893 49.105 107.833 48.595C106.773 48.085 105.938 47.335 105.328 46.345C104.718 45.355 104.413 44.145 104.413 42.715C104.413 41.515 104.673 40.435 105.193 39.475C105.723 38.505 106.488 37.74 107.488 37.18C108.488 36.61 109.693 36.325 111.103 36.325C112.443 36.325 113.603 36.57 114.583 37.06C115.573 37.55 116.333 38.28 116.863 39.25C117.403 40.21 117.673 41.41 117.673 42.85C117.673 42.93 117.668 43.09 117.658 43.33C117.658 43.57 117.648 43.73 117.628 43.81H108.718ZM113.383 41.425C113.373 41.105 113.288 40.79 113.128 40.48C112.968 40.16 112.728 39.9 112.408 39.7C112.088 39.49 111.678 39.385 111.178 39.385C110.678 39.385 110.253 39.485 109.903 39.685C109.563 39.875 109.303 40.125 109.123 40.435C108.943 40.745 108.843 41.075 108.823 41.425H113.383ZM128.505 36.325C129.365 36.325 130.205 36.5 131.025 36.85C131.845 37.2 132.52 37.755 133.05 38.515C133.58 39.265 133.845 40.255 133.845 41.485V49H129.27V42.235C129.27 41.355 129.06 40.695 128.64 40.255C128.22 39.805 127.67 39.58 126.99 39.58C126.54 39.58 126.115 39.7 125.715 39.94C125.325 40.17 125.005 40.5 124.755 40.93C124.515 41.35 124.395 41.835 124.395 42.385V49H119.835V36.685H124.395V38.5C124.515 38.17 124.765 37.84 125.145 37.51C125.535 37.17 126.02 36.89 126.6 36.67C127.19 36.44 127.825 36.325 128.505 36.325ZM135.444 36.685H137.544V31.63H142.059V36.685H144.819V40.435H142.059V43.87C142.059 44.38 142.134 44.795 142.284 45.115C142.434 45.425 142.709 45.58 143.109 45.58C143.379 45.58 143.609 45.52 143.799 45.4C143.989 45.28 144.104 45.2 144.144 45.16L145.704 48.4C145.634 48.46 145.414 48.57 145.044 48.73C144.684 48.89 144.224 49.035 143.664 49.165C143.104 49.295 142.479 49.36 141.789 49.36C140.559 49.36 139.544 49.015 138.744 48.325C137.944 47.625 137.544 46.55 137.544 45.1V40.435H135.444V36.685ZM165.802 44.92C166.722 44.92 167.557 44.785 168.307 44.515C169.067 44.245 169.632 43.98 170.002 43.72L171.922 47.53C171.452 47.93 170.647 48.335 169.507 48.745C168.377 49.155 167.032 49.36 165.472 49.36C164.012 49.36 162.642 49.105 161.362 48.595C160.082 48.085 158.952 47.37 157.972 46.45C157.002 45.52 156.237 44.435 155.677 43.195C155.127 41.945 154.852 40.59 154.852 39.13C154.852 37.67 155.127 36.315 155.677 35.065C156.227 33.805 156.987 32.71 157.957 31.78C158.937 30.85 160.067 30.13 161.347 29.62C162.637 29.1 164.012 28.84 165.472 28.84C167.032 28.84 168.377 29.045 169.507 29.455C170.647 29.865 171.452 30.27 171.922 30.67L170.002 34.48C169.632 34.21 169.067 33.945 168.307 33.685C167.557 33.415 166.722 33.28 165.802 33.28C164.782 33.28 163.892 33.44 163.132 33.76C162.372 34.07 161.737 34.5 161.227 35.05C160.717 35.6 160.337 36.22 160.087 36.91C159.837 37.6 159.712 38.325 159.712 39.085C159.712 39.855 159.837 40.59 160.087 41.29C160.337 41.98 160.717 42.6 161.227 43.15C161.737 43.7 162.372 44.135 163.132 44.455C163.892 44.765 164.782 44.92 165.802 44.92ZM180.938 49.36C179.588 49.36 178.388 49.085 177.338 48.535C176.298 47.975 175.478 47.21 174.878 46.24C174.288 45.26 173.993 44.14 173.993 42.88C173.993 41.62 174.288 40.5 174.878 39.52C175.478 38.53 176.298 37.75 177.338 37.18C178.388 36.61 179.588 36.325 180.938 36.325C182.288 36.325 183.478 36.61 184.508 37.18C185.538 37.75 186.343 38.53 186.923 39.52C187.503 40.5 187.793 41.62 187.793 42.88C187.793 44.14 187.503 45.26 186.923 46.24C186.343 47.21 185.538 47.975 184.508 48.535C183.478 49.085 182.288 49.36 180.938 49.36ZM180.938 45.61C181.458 45.61 181.908 45.495 182.288 45.265C182.668 45.035 182.963 44.71 183.173 44.29C183.383 43.87 183.488 43.395 183.488 42.865C183.488 42.325 183.383 41.845 183.173 41.425C182.963 41.005 182.668 40.675 182.288 40.435C181.908 40.195 181.458 40.075 180.938 40.075C180.418 40.075 179.963 40.195 179.573 40.435C179.193 40.675 178.893 41.005 178.673 41.425C178.463 41.845 178.358 42.325 178.358 42.865C178.358 43.395 178.463 43.87 178.673 44.29C178.893 44.71 179.193 45.035 179.573 45.265C179.963 45.495 180.418 45.61 180.938 45.61ZM198.641 36.325C199.501 36.325 200.341 36.5 201.161 36.85C201.981 37.2 202.656 37.755 203.186 38.515C203.716 39.265 203.981 40.255 203.981 41.485V49H199.406V42.235C199.406 41.355 199.196 40.695 198.776 40.255C198.356 39.805 197.806 39.58 197.126 39.58C196.676 39.58 196.251 39.7 195.851 39.94C195.461 40.17 195.141 40.5 194.891 40.93C194.651 41.35 194.531 41.835 194.531 42.385V49H189.971V36.685H194.531V38.5C194.651 38.17 194.901 37.84 195.281 37.51C195.671 37.17 196.156 36.89 196.736 36.67C197.326 36.44 197.961 36.325 198.641 36.325ZM212.151 36.325C212.961 36.325 213.701 36.395 214.371 36.535C215.041 36.665 215.601 36.815 216.051 36.985C216.511 37.155 216.806 37.295 216.936 37.405L215.451 40.09C215.261 39.95 214.906 39.77 214.386 39.55C213.876 39.33 213.306 39.22 212.676 39.22C212.196 39.22 211.791 39.295 211.461 39.445C211.131 39.585 210.966 39.81 210.966 40.12C210.966 40.43 211.146 40.68 211.506 40.87C211.876 41.05 212.406 41.21 213.096 41.35C213.696 41.47 214.306 41.66 214.926 41.92C215.546 42.18 216.061 42.565 216.471 43.075C216.891 43.575 217.101 44.245 217.101 45.085C217.101 45.945 216.916 46.655 216.546 47.215C216.176 47.775 215.686 48.21 215.076 48.52C214.466 48.83 213.806 49.045 213.096 49.165C212.386 49.295 211.696 49.36 211.026 49.36C210.086 49.36 209.266 49.275 208.566 49.105C207.876 48.935 207.316 48.74 206.886 48.52C206.456 48.3 206.156 48.125 205.986 47.995L207.456 44.995C207.716 45.215 208.141 45.465 208.731 45.745C209.321 46.015 209.946 46.15 210.606 46.15C211.246 46.15 211.741 46.055 212.091 45.865C212.441 45.675 212.616 45.425 212.616 45.115C212.616 44.865 212.531 44.665 212.361 44.515C212.191 44.365 211.951 44.235 211.641 44.125C211.331 44.015 210.956 43.915 210.516 43.825C210.116 43.745 209.691 43.62 209.241 43.45C208.791 43.28 208.366 43.05 207.966 42.76C207.566 42.46 207.241 42.085 206.991 41.635C206.741 41.185 206.616 40.64 206.616 40C206.616 39.18 206.881 38.5 207.411 37.96C207.941 37.42 208.626 37.015 209.466 36.745C210.306 36.465 211.201 36.325 212.151 36.325ZM223.842 42.385C223.842 43.365 224.027 44.15 224.397 44.74C224.767 45.32 225.387 45.61 226.257 45.61C227.147 45.61 227.772 45.32 228.132 44.74C228.502 44.15 228.687 43.365 228.687 42.385V36.685H233.187V42.865C233.187 44.185 232.912 45.335 232.362 46.315C231.822 47.285 231.037 48.035 230.007 48.565C228.977 49.095 227.727 49.36 226.257 49.36C224.797 49.36 223.552 49.095 222.522 48.565C221.492 48.035 220.707 47.285 220.167 46.315C219.627 45.335 219.357 44.185 219.357 42.865V36.685H223.842V42.385ZM240.517 49H235.942V28.36H240.517V49ZM242.407 36.685H244.507V31.63H249.022V36.685H251.782V40.435H249.022V43.87C249.022 44.38 249.097 44.795 249.247 45.115C249.397 45.425 249.672 45.58 250.072 45.58C250.342 45.58 250.572 45.52 250.762 45.4C250.952 45.28 251.067 45.2 251.107 45.16L252.667 48.4C252.597 48.46 252.377 48.57 252.007 48.73C251.647 48.89 251.187 49.035 250.627 49.165C250.067 49.295 249.442 49.36 248.752 49.36C247.522 49.36 246.507 49.015 245.707 48.325C244.907 47.625 244.507 46.55 244.507 45.1V40.435H242.407V36.685ZM254.506 49V36.685H259.066V49H254.506ZM256.846 34.15C256.126 34.15 255.516 33.9 255.016 33.4C254.516 32.89 254.266 32.285 254.266 31.585C254.266 30.885 254.516 30.28 255.016 29.77C255.526 29.25 256.136 28.99 256.846 28.99C257.316 28.99 257.746 29.11 258.136 29.35C258.526 29.58 258.841 29.89 259.081 30.28C259.321 30.67 259.441 31.105 259.441 31.585C259.441 32.285 259.186 32.89 258.676 33.4C258.166 33.9 257.556 34.15 256.846 34.15ZM270.682 36.325C271.542 36.325 272.382 36.5 273.202 36.85C274.022 37.2 274.697 37.755 275.227 38.515C275.757 39.265 276.022 40.255 276.022 41.485V49H271.447V42.235C271.447 41.355 271.237 40.695 270.817 40.255C270.397 39.805 269.847 39.58 269.167 39.58C268.717 39.58 268.292 39.7 267.892 39.94C267.502 40.17 267.182 40.5 266.932 40.93C266.692 41.35 266.572 41.835 266.572 42.385V49H262.012V36.685H266.572V38.5C266.692 38.17 266.942 37.84 267.322 37.51C267.712 37.17 268.197 36.89 268.777 36.67C269.367 36.44 270.002 36.325 270.682 36.325ZM285.137 55.585C284.277 55.585 283.422 55.51 282.572 55.36C281.732 55.21 280.947 54.955 280.217 54.595C279.487 54.235 278.872 53.74 278.372 53.11L281.042 50.335C281.272 50.605 281.552 50.87 281.882 51.13C282.222 51.39 282.637 51.605 283.127 51.775C283.627 51.945 284.232 52.03 284.942 52.03C285.602 52.03 286.177 51.915 286.667 51.685C287.157 51.455 287.537 51.12 287.807 50.68C288.087 50.24 288.227 49.705 288.227 49.075V48.775H292.712V49.345C292.712 50.705 292.372 51.85 291.692 52.78C291.022 53.71 290.117 54.41 288.977 54.88C287.837 55.35 286.557 55.585 285.137 55.585ZM288.227 49V47.005C288.137 47.205 287.907 47.495 287.537 47.875C287.177 48.255 286.697 48.6 286.097 48.91C285.497 49.21 284.797 49.36 283.997 49.36C282.797 49.36 281.747 49.07 280.847 48.49C279.947 47.9 279.247 47.115 278.747 46.135C278.247 45.145 277.997 44.05 277.997 42.85C277.997 41.65 278.247 40.56 278.747 39.58C279.247 38.59 279.947 37.8 280.847 37.21C281.747 36.62 282.797 36.325 283.997 36.325C284.767 36.325 285.442 36.45 286.022 36.7C286.602 36.94 287.072 37.23 287.432 37.57C287.792 37.9 288.042 38.205 288.182 38.485V36.685H292.712V49H288.227ZM282.467 42.85C282.467 43.41 282.597 43.915 282.857 44.365C283.117 44.805 283.462 45.15 283.892 45.4C284.332 45.65 284.817 45.775 285.347 45.775C285.897 45.775 286.382 45.65 286.802 45.4C287.222 45.15 287.552 44.805 287.792 44.365C288.042 43.915 288.167 43.41 288.167 42.85C288.167 42.29 288.042 41.79 287.792 41.35C287.552 40.9 287.222 40.55 286.802 40.3C286.382 40.04 285.897 39.91 285.347 39.91C284.817 39.91 284.332 40.04 283.892 40.3C283.462 40.55 283.117 40.9 282.857 41.35C282.597 41.79 282.467 42.29 282.467 42.85Z" fill="#043576"/>
<path d="M9.08 62.8H11.18V70.97C11.18 72.0567 10.9633 72.9967 10.53 73.79C10.1033 74.5767 9.50667 75.1833 8.74 75.61C7.97333 76.03 7.08 76.24 6.06 76.24C5.04667 76.24 4.15333 76.03 3.38 75.61C2.60667 75.1833 2.00333 74.5767 1.57 73.79C1.13667 72.9967 0.92 72.0567 0.92 70.97V62.8H3.02V70.86C3.02 71.58 3.15 72.1967 3.41 72.71C3.67667 73.2233 4.03667 73.6167 4.49 73.89C4.95 74.1633 5.47333 74.3 6.06 74.3C6.64667 74.3 7.16667 74.1633 7.62 73.89C8.07333 73.6167 8.43 73.2233 8.69 72.71C8.95 72.1967 9.08 71.58 9.08 70.86V62.8ZM17.8891 62.56C18.6624 62.56 19.3324 62.65 19.8991 62.83C20.4724 63.0033 20.9257 63.19 21.2591 63.39C21.5924 63.5833 21.7924 63.71 21.8591 63.77L20.8091 65.48C20.7091 65.3933 20.5291 65.2733 20.2691 65.12C20.0157 64.96 19.7024 64.8167 19.3291 64.69C18.9624 64.5633 18.5524 64.5 18.0991 64.5C17.4191 64.5 16.8791 64.6333 16.4791 64.9C16.0791 65.16 15.8791 65.54 15.8791 66.04C15.8791 66.3733 15.9857 66.6667 16.1991 66.92C16.4124 67.1733 16.7157 67.41 17.1091 67.63C17.5091 67.85 17.9857 68.0733 18.5391 68.3C19.0057 68.4933 19.4591 68.7133 19.8991 68.96C20.3457 69.2067 20.7457 69.4967 21.0991 69.83C21.4524 70.1633 21.7324 70.55 21.9391 70.99C22.1524 71.43 22.2591 71.9367 22.2591 72.51C22.2591 73.11 22.1357 73.6433 21.8891 74.11C21.6424 74.57 21.3024 74.96 20.8691 75.28C20.4357 75.5933 19.9357 75.8333 19.3691 76C18.8091 76.16 18.2091 76.24 17.5691 76.24C16.7291 76.24 15.9724 76.14 15.2991 75.94C14.6324 75.7333 14.0924 75.52 13.6791 75.3C13.2657 75.0733 13.0257 74.9267 12.9591 74.86L14.0691 73.07C14.1491 73.1367 14.2957 73.2367 14.5091 73.37C14.7291 73.4967 14.9991 73.6333 15.3191 73.78C15.6391 73.92 15.9924 74.04 16.3791 74.14C16.7724 74.2333 17.1791 74.28 17.5991 74.28C18.4057 74.28 19.0157 74.1067 19.4291 73.76C19.8424 73.4067 20.0491 72.9533 20.0491 72.4C20.0491 71.98 19.9157 71.6167 19.6491 71.31C19.3891 70.9967 19.0291 70.7133 18.5691 70.46C18.1157 70.2067 17.5991 69.9567 17.0191 69.71C16.4257 69.45 15.8757 69.1567 15.3691 68.83C14.8691 68.5033 14.4657 68.1067 14.1591 67.64C13.8524 67.1667 13.6991 66.5933 13.6991 65.92C13.6991 65.2467 13.8891 64.66 14.2691 64.16C14.6557 63.6533 15.1657 63.26 15.7991 62.98C16.4324 62.7 17.1291 62.56 17.8891 62.56ZM28.0208 60.66H29.3108V62.93H28.0208V60.66ZM28.0208 75.79H29.3108V78.06H28.0208V75.79ZM28.6508 62.56C29.4241 62.56 30.0941 62.65 30.6608 62.83C31.2341 63.0033 31.6874 63.19 32.0208 63.39C32.3541 63.5833 32.5541 63.71 32.6208 63.77L31.5708 65.48C31.4708 65.3933 31.2908 65.2733 31.0308 65.12C30.7774 64.96 30.4641 64.8167 30.0908 64.69C29.7241 64.5633 29.3141 64.5 28.8608 64.5C28.1808 64.5 27.6408 64.6333 27.2408 64.9C26.8408 65.16 26.6408 65.54 26.6408 66.04C26.6408 66.3733 26.7474 66.6667 26.9608 66.92C27.1741 67.1733 27.4774 67.41 27.8708 67.63C28.2708 67.85 28.7474 68.0733 29.3008 68.3C29.7674 68.4933 30.2208 68.7133 30.6608 68.96C31.1074 69.2067 31.5074 69.4967 31.8608 69.83C32.2141 70.1633 32.4941 70.55 32.7008 70.99C32.9141 71.43 33.0208 71.9367 33.0208 72.51C33.0208 73.11 32.8974 73.6433 32.6508 74.11C32.4041 74.57 32.0641 74.96 31.6308 75.28C31.1974 75.5933 30.6974 75.8333 30.1308 76C29.5708 76.16 28.9708 76.24 28.3308 76.24C27.4908 76.24 26.7341 76.14 26.0608 75.94C25.3941 75.7333 24.8541 75.52 24.4408 75.3C24.0274 75.0733 23.7874 74.9267 23.7208 74.86L24.8308 73.07C24.9108 73.1367 25.0574 73.2367 25.2708 73.37C25.4908 73.4967 25.7608 73.6333 26.0808 73.78C26.4008 73.92 26.7541 74.04 27.1408 74.14C27.5341 74.2333 27.9408 74.28 28.3608 74.28C29.1674 74.28 29.7774 74.1067 30.1908 73.76C30.6041 73.4067 30.8108 72.9533 30.8108 72.4C30.8108 71.98 30.6774 71.6167 30.4108 71.31C30.1508 70.9967 29.7908 70.7133 29.3308 70.46C28.8774 70.2067 28.3608 69.9567 27.7808 69.71C27.1874 69.45 26.6374 69.1567 26.1308 68.83C25.6308 68.5033 25.2274 68.1067 24.9208 67.64C24.6141 67.1667 24.4608 66.5933 24.4608 65.92C24.4608 65.2467 24.6508 64.66 25.0308 64.16C25.4174 63.6533 25.9274 63.26 26.5608 62.98C27.1941 62.7 27.8908 62.56 28.6508 62.56ZM44.5706 64.39C44.0573 64.39 43.604 64.5 43.2106 64.72C42.824 64.9333 42.5006 65.1867 42.2406 65.48C41.9806 65.7733 41.7806 66.04 41.6406 66.28C41.5073 66.52 41.434 66.6533 41.4206 66.68L39.5906 65.86C39.604 65.8 39.6673 65.65 39.7806 65.41C39.894 65.1633 40.0706 64.8833 40.3106 64.57C40.5506 64.25 40.8606 63.9367 41.2406 63.63C41.6273 63.3233 42.094 63.07 42.6406 62.87C43.194 62.6633 43.8373 62.56 44.5706 62.56C45.364 62.56 46.0373 62.67 46.5906 62.89C47.144 63.11 47.594 63.4133 47.9406 63.8C48.2873 64.18 48.5406 64.6167 48.7006 65.11C48.8606 65.6033 48.9406 66.1233 48.9406 66.67C48.9406 67.23 48.8106 67.7967 48.5506 68.37C48.2973 68.9433 47.9673 69.5 47.5606 70.04C47.154 70.5733 46.7173 71.0733 46.2506 71.54C45.784 72.0067 45.3306 72.4233 44.8906 72.79C44.4573 73.1567 44.084 73.4567 43.7706 73.69C43.464 73.9233 43.2706 74.07 43.1906 74.13H48.8306V76H39.9506V74.3C40.124 74.16 40.4073 73.9367 40.8006 73.63C41.2006 73.3233 41.6606 72.96 42.1806 72.54C42.7006 72.1133 43.2273 71.65 43.7606 71.15C44.3006 70.65 44.8006 70.1367 45.2606 69.61C45.7273 69.0833 46.1006 68.5667 46.3806 68.06C46.6673 67.5533 46.8106 67.08 46.8106 66.64C46.8106 65.8133 46.6173 65.2333 46.2306 64.9C45.844 64.56 45.2906 64.39 44.5706 64.39ZM53.0758 76.24C52.6691 76.24 52.3191 76.0967 52.0258 75.81C51.7391 75.5167 51.5958 75.1633 51.5958 74.75C51.5958 74.3367 51.7391 73.9833 52.0258 73.69C52.3191 73.3967 52.6691 73.25 53.0758 73.25C53.4958 73.25 53.8491 73.3967 54.1358 73.69C54.4291 73.9833 54.5758 74.3367 54.5758 74.75C54.5758 75.1633 54.4291 75.5167 54.1358 75.81C53.8491 76.0967 53.4958 76.24 53.0758 76.24ZM58.9581 65.44L56.7281 66.68V64.65L59.9581 62.8H61.0681V76H58.9581V65.44ZM68.6963 62.8H72.6363C73.3629 62.8 74.0429 62.9 74.6763 63.1C75.3163 63.2933 75.8329 63.6233 76.2263 64.09C76.6196 64.55 76.8163 65.1867 76.8163 66C76.8163 66.5467 76.7096 67.04 76.4963 67.48C76.2896 67.92 76.0263 68.2767 75.7063 68.55C75.3863 68.8233 75.0596 68.99 74.7263 69.05C75.0063 69.0767 75.2996 69.1633 75.6063 69.31C75.9196 69.45 76.2129 69.65 76.4863 69.91C76.7663 70.17 76.9929 70.4967 77.1663 70.89C77.3396 71.2833 77.4263 71.7433 77.4263 72.27C77.4263 73.0033 77.2729 73.65 76.9663 74.21C76.6596 74.77 76.2029 75.21 75.5963 75.53C74.9896 75.8433 74.2296 76 73.3163 76H68.6963V62.8ZM70.7963 74.27H72.9763C73.5496 74.27 73.9963 74.1733 74.3163 73.98C74.6429 73.7867 74.8763 73.53 75.0163 73.21C75.1563 72.8833 75.2263 72.5267 75.2263 72.14C75.2263 71.5067 75.0229 71.01 74.6163 70.65C74.2096 70.29 73.6263 70.11 72.8663 70.11H70.7963V74.27ZM70.7963 68.41H72.6963C73.1563 68.41 73.5363 68.3167 73.8363 68.13C74.1363 67.9367 74.3596 67.6833 74.5063 67.37C74.6529 67.05 74.7263 66.7167 74.7263 66.37C74.7263 65.67 74.5229 65.19 74.1163 64.93C73.7096 64.6633 73.1663 64.53 72.4863 64.53H70.7963V68.41ZM79.607 76V67.79H81.737V76H79.607ZM80.697 65.33C80.337 65.33 80.027 65.2 79.767 64.94C79.5137 64.68 79.387 64.37 79.387 64.01C79.387 63.65 79.5137 63.34 79.767 63.08C80.027 62.8133 80.337 62.68 80.697 62.68C80.937 62.68 81.157 62.7433 81.357 62.87C81.5637 62.99 81.727 63.15 81.847 63.35C81.9737 63.5433 82.037 63.7633 82.037 64.01C82.037 64.37 81.907 64.68 81.647 64.94C81.387 65.2 81.0704 65.33 80.697 65.33ZM86.4122 76H84.2622V62.24H86.4122V76ZM90.9239 76H88.7739V62.24H90.9239V76ZM93.4156 76V67.79H95.5456V76H93.4156ZM94.5056 65.33C94.1456 65.33 93.8356 65.2 93.5756 64.94C93.3223 64.68 93.1956 64.37 93.1956 64.01C93.1956 63.65 93.3223 63.34 93.5756 63.08C93.8356 62.8133 94.1456 62.68 94.5056 62.68C94.7456 62.68 94.9656 62.7433 95.1656 62.87C95.3723 62.99 95.5356 63.15 95.6556 63.35C95.7823 63.5433 95.8456 63.7633 95.8456 64.01C95.8456 64.37 95.7156 64.68 95.4556 64.94C95.1956 65.2 94.879 65.33 94.5056 65.33ZM101.951 76.24C101.091 76.24 100.324 76.0533 99.6508 75.68C98.9841 75.3 98.4608 74.7867 98.0808 74.14C97.7008 73.4867 97.5108 72.7467 97.5108 71.92C97.5108 71.0933 97.7008 70.35 98.0808 69.69C98.4608 69.03 98.9841 68.51 99.6508 68.13C100.324 67.7433 101.091 67.55 101.951 67.55C102.811 67.55 103.571 67.7433 104.231 68.13C104.891 68.51 105.407 69.03 105.781 69.69C106.161 70.35 106.351 71.0933 106.351 71.92C106.351 72.7467 106.161 73.4867 105.781 74.14C105.407 74.7867 104.891 75.3 104.231 75.68C103.571 76.0533 102.811 76.24 101.951 76.24ZM101.951 74.44C102.431 74.44 102.847 74.33 103.201 74.11C103.554 73.89 103.827 73.59 104.021 73.21C104.214 72.83 104.311 72.3967 104.311 71.91C104.311 71.4233 104.214 70.99 104.021 70.61C103.827 70.2233 103.554 69.9167 103.201 69.69C102.847 69.4633 102.431 69.35 101.951 69.35C101.471 69.35 101.051 69.4633 100.691 69.69C100.337 69.9167 100.061 70.2233 99.8608 70.61C99.6674 70.99 99.5708 71.4233 99.5708 71.91C99.5708 72.3967 99.6674 72.83 99.8608 73.21C100.061 73.59 100.337 73.89 100.691 74.11C101.051 74.33 101.471 74.44 101.951 74.44ZM113.068 67.55C113.621 67.55 114.158 67.6633 114.678 67.89C115.198 68.1167 115.625 68.48 115.958 68.98C116.298 69.4733 116.468 70.1167 116.468 70.91V76H114.318V71.3C114.318 70.56 114.141 70.0167 113.788 69.67C113.441 69.3167 112.991 69.14 112.438 69.14C112.071 69.14 111.721 69.2433 111.388 69.45C111.055 69.6567 110.781 69.9367 110.568 70.29C110.361 70.6433 110.258 71.05 110.258 71.51V76H108.118V67.79H110.258V69.17C110.318 68.9433 110.478 68.7067 110.738 68.46C111.005 68.2067 111.341 67.9933 111.748 67.82C112.155 67.64 112.595 67.55 113.068 67.55ZM127.795 62.8H129.945L134.925 76H132.685L131.595 72.98H126.155L125.055 76H122.805L127.795 62.8ZM126.835 71.11H130.915L128.885 65.36H128.855L126.835 71.11ZM144.295 62.8H146.395V70.97C146.395 72.0567 146.178 72.9967 145.745 73.79C145.318 74.5767 144.722 75.1833 143.955 75.61C143.188 76.03 142.295 76.24 141.275 76.24C140.262 76.24 139.368 76.03 138.595 75.61C137.822 75.1833 137.218 74.5767 136.785 73.79C136.352 72.9967 136.135 72.0567 136.135 70.97V62.8H138.235V70.86C138.235 71.58 138.365 72.1967 138.625 72.71C138.892 73.2233 139.252 73.6167 139.705 73.89C140.165 74.1633 140.688 74.3 141.275 74.3C141.862 74.3 142.382 74.1633 142.835 73.89C143.288 73.6167 143.645 73.2233 143.905 72.71C144.165 72.1967 144.295 71.58 144.295 70.86V62.8ZM161.374 62.8V76H159.274V67.01L159.374 65.32L158.974 67.22L156.084 75.16H154.014L151.134 67.22L150.734 65.32L150.834 67.01V76H148.734V62.8H151.604L154.904 72.68L155.054 73.47L155.194 72.68L158.514 62.8H161.374Z" fill="black"/>
</svg>
